ply
format ascii 1.0
comment VCGLIB generated
element vertex 48
property float x
property float y
property float z
property float nx
property float ny
property float nz
property uchar red
property uchar green
property uchar blue
property uchar alpha
property float texture_u
property float texture_v
element face 24
property list uchar int vertex_indices
end_header
-1.014795 0.057197 1.014795 0 2 0 102 122 108 255 0.000000 0.000000
1.014795 0.057197 1.014795 0 1 0 102 122 108 255 1.000000 0.000000
1.014795 0.057197 -1.014795 0 2 0 102 122 108 255 1.000000 1.000000
-1.014795 0.057197 -1.014795 0 1 0 102 122 108 255 0.000000 1.000000
1.014795 -0.057197 1.014795 0 -2 0 102 122 108 255 0.000000 0.000000
-1.014795 -0.057197 1.014795 0 -1 0 102 122 108 255 1.000000 0.000000
-1.014795 -0.057197 -1.014795 0 -2 0 102 122 108 255 1.000000 1.000000
1.014795 -0.057197 -1.014795 0 -1 0 102 122 108 255 0.000000 1.000000
-1.014795 -0.057197 -1.014795 0 0 -2 102 122 108 255 0.000000 0.000000
-1.014795 0.057197 -1.014795 0 0 -1 102 122 108 255 1.000000 0.000000
1.014795 0.057197 -1.014795 0 0 -2 102 122 108 255 1.000000 1.000000
1.014795 -0.057197 -1.014795 0 0 -1 102 122 108 255 0.000000 1.000000
-1.014795 -0.057197 1.014795 -2 0 0 102 122 108 255 0.000000 0.000000
-1.014795 0.057197 1.014795 -1 0 0 102 122 108 255 1.000000 0.000000
-1.014795 0.057197 -1.014795 -2 0 0 102 122 108 255 1.000000 1.000000
-1.014795 -0.057197 -1.014795 -1 0 0 102 122 108 255 0.000000 1.000000
1.014795 -0.057197 1.014795 0 0 2 102 122 108 255 0.000000 0.000000
1.014795 0.057197 1.014795 0 0 1 102 122 108 255 1.000000 0.000000
-1.014795 0.057197 1.014795 0 0 2 102 122 108 255 1.000000 1.000000
-1.014795 -0.057197 1.014795 0 0 1 102 122 108 255 0.000000 1.000000
1.014795 -0.057197 -1.014795 2 0 0 102 122 108 255 0.000000 0.000000
1.014795 0.057197 -1.014795 1 0 0 102 122 108 255 1.000000 0.000000
1.014795 0.057197 1.014795 2 0 0 102 122 108 255 1.000000 1.000000
1.014795 -0.057197 1.014795 1 0 0 102 122 108 255 0.000000 1.000000
-1.014795 0.057197 1.014795 0 -2 0 102 122 108 255 0.000000 0.000000
-1.014795 0.057197 -1.014795 0 -1 0 102 122 108 255 1.000000 0.000000
1.014795 0.057197 -1.014795 0 -2 0 102 122 108 255 1.000000 1.000000
1.014795 0.057197 1.014795 0 -1 0 102 122 108 255 0.000000 1.000000
1.014795 -0.057197 1.014795 0 2 0 102 122 108 255 0.000000 0.000000
1.014795 -0.057197 -1.014795 0 1 0 102 122 108 255 1.000000 0.000000
-1.014795 -0.057197 -1.014795 0 2 0 102 122 108 255 1.000000 1.000000
-1.014795 -0.057197 1.014795 0 1 0 102 122 108 255 0.000000 1.000000
-1.014795 -0.057197 -1.014795 0 0 2 102 122 108 255 0.000000 0.000000
1.014795 -0.057197 -1.014795 0 0 1 102 122 108 255 1.000000 0.000000
1.014795 0.057197 -1.014795 0 0 2 102 122 108 255 1.000000 1.000000
-1.014795 0.057197 -1.014795 0 0 1 102 122 108 255 0.000000 1.000000
-1.014795 -0.057197 1.014795 2 0 0 102 122 108 255 0.000000 0.000000
-1.014795 -0.057197 -1.014795 1 0 0 102 122 108 255 1.000000 0.000000
-1.014795 0.057197 -1.014795 2 0 0 102 122 108 255 1.000000 1.000000
-1.014795 0.057197 1.014795 1 0 0 102 122 108 255 0.000000 1.000000
1.014795 -0.057197 1.014795 0 0 -2 102 122 108 255 0.000000 0.000000
-1.014795 -0.057197 1.014795 0 0 -1 102 122 108 255 1.000000 0.000000
-1.014795 0.057197 1.014795 0 0 -2 102 122 108 255 1.000000 1.000000
1.014795 0.057197 1.014795 0 0 -1 102 122 108 255 0.000000 1.000000
1.014795 -0.057197 -1.014795 -2 0 0 102 122 108 255 0.000000 0.000000
1.014795 -0.057197 1.014795 -1 0 0 102 122 108 255 1.000000 0.000000
1.014795 0.057197 1.014795 -2 0 0 102 122 108 255 1.000000 1.000000
1.014795 0.057197 -1.014795 -1 0 0 102 122 108 255 0.000000 1.000000
3 0 1 2 
3 0 2 3 
3 4 5 6 
3 4 6 7 
3 8 9 10 
3 8 10 11 
3 12 13 14 
3 12 14 15 
3 16 17 18 
3 16 18 19 
3 20 21 22 
3 20 22 23 
3 24 25 26 
3 24 26 27 
3 28 29 30 
3 28 30 31 
3 32 33 34 
3 32 34 35 
3 36 37 38 
3 36 38 39 
3 40 41 42 
3 40 42 43 
3 44 45 46 
3 44 46 47 
