ply
format ascii 1.0
comment VCGLIB generated
element vertex 126
property float x
property float y
property float z
property float nx
property float ny
property float nz
property uchar red
property uchar green
property uchar blue
property uchar alpha
property float texture_u
property float texture_v
element face 96
property list uchar int vertex_indices
end_header
0.016347 -0.099919 1.803127 0.7440858 0.01770133 0.6678494 155 155 155 255 0.079320 0.540687
0.0093 -0.026876 1.767471 0.6709889 0.6473066 0.3616188 155 155 155 255 0.017056 0.416729
-0.084019 -0.048882 1.767517 -0.7239189 0.5686056 0.3906777 155 155 155 255 0.061250 0.589973
-0.040874 -0.001342 1.767472 -0.1326356 0.8957664 0.4242763 155 155 155 255 0.001595 0.467524
-0.024132 -0.129848 1.820971 0.1369088 -0.3804819 0.914598 155 155 155 255 0.547046 0.939308
0.016347 -0.099919 1.803127 0.7440859 0.01770133 0.6678495 155 155 155 255 0.130838 0.614008
-0.091943 -0.101684 1.803165 -0.6842323 0.01571717 0.7290947 155 155 155 255 0.589486 0.921262
-0.084019 -0.048882 1.767517 -0.7239189 0.5686056 0.3906777 155 155 155 255 0.111491 0.646658
-0.084019 -0.048882 1.767517 -0.7239189 0.5686056 0.3906777 155 155 155 255 0.079320 0.540687
-0.040874 -0.001342 1.767472 -0.1326356 0.8957664 0.4242763 155 155 155 255 0.017056 0.416729
-0.094651 -0.119406 1.625105 -0.826795 0.5541371 0.09665412 155 155 155 255 0.061250 0.589973
-0.033884 -0.074506 1.625055 0.02197357 0.9556209 -0.2937787 155 155 155 255 0.001595 0.467524
-0.091943 -0.101684 1.803165 -0.6842323 0.01571717 0.7290947 155 155 155 255 0.547046 0.939308
-0.084019 -0.048882 1.767517 -0.7239189 0.5686056 0.3906777 155 155 155 255 0.130838 0.614008
-0.105197 -0.189823 1.660771 -0.7854735 -0.2922219 0.5455619 155 155 155 255 0.589486 0.921262
-0.094651 -0.119406 1.625105 -0.826795 0.5541371 0.09665412 155 155 155 255 0.111491 0.646658
-0.040874 -0.001342 1.767472 -0.1326356 0.8957664 0.4242763 155 155 155 255 0.022050 0.418036
0.0093 -0.026876 1.767471 0.6709889 0.6473066 0.3616188 155 155 155 255 0.190941 0.626941
-0.033884 -0.074506 1.625055 0.02197357 0.9556209 -0.2937787 155 155 155 255 0.009171 0.468113
-0.001313 -0.097398 1.625059 0.8065271 0.5899333 -0.03863667 155 155 155 255 0.165294 0.679663
-0.091943 -0.101684 1.803165 -0.6842323 0.01571717 0.7290947 155 155 155 255 0.612495 0.953334
-0.105197 -0.189823 1.660771 -0.7854735 -0.2922219 0.5455619 155 155 155 255 0.658793 0.927064
-0.024132 -0.129848 1.820971 0.1369088 -0.3804819 0.914598 155 155 155 255 0.700896 0.978884
-0.037392 -0.217998 1.660765 0.1706625 -0.690125 0.7032793 155 155 155 255 0.752358 0.939107
0.016347 -0.099919 1.803127 0.7440858 0.01770133 0.6678494 155 155 155 255 0.597272 0.978651
-0.024132 -0.129848 1.820971 0.1369088 -0.3804819 0.914598 155 155 155 255 0.704614 0.991722
0.00575 -0.170455 1.66072 0.8900453 -0.2438214 0.3851888 155 155 155 255 0.612733 0.984192
-0.037392 -0.217998 1.660765 0.1706625 -0.690125 0.7032793 155 155 155 255 0.757352 0.952485
0.00575 -0.170455 1.66072 0.8900453 -0.2438214 0.3851888 155 155 155 255 0.552194 0.956746
-0.001313 -0.097398 1.625059 0.8065271 0.5899333 -0.03863667 155 155 155 255 0.226913 0.740356
0.016347 -0.099919 1.803127 0.7440859 0.01770133 0.6678495 155 155 155 255 0.541868 0.939497
0.0093 -0.026876 1.767471 0.6709889 0.6473066 0.3616188 155 155 155 255 0.253836 0.696222
0.113108 -0.294695 1.500496 0.8597369 -0.2909435 0.4197671 155 155 155 255 0.699392 0.715732
0.098989 -0.148557 1.46479 0.8133922 0.5709803 0.1112418 155 155 155 255 0.470335 0.563354
0.00575 -0.170455 1.66072 0.8900453 -0.2438214 0.3851888 155 155 155 255 0.692120 0.703585
-0.001313 -0.097398 1.625059 0.8065271 0.5899333 -0.03863667 155 155 155 255 0.489294 0.532276
0.108616 -0.204177 1.23333 0.8672208 0.4978219 -0.01007108 155 155 155 255 0.490193 0.490152
0.144698 -0.443666 1.215663 0.8548409 -0.4747249 0.2094834 155 155 155 255 0.806969 0.578509
0.128711 -0.189456 0.841556 0.8444868 0.5168664 0.1403255 155 155 155 255 0.499242 0.541163
0.179777 -0.449255 0.752668 0.8880851 -0.4562959 -0.0556677 155 155 155 255 0.813282 0.486398
0.14708 -0.066455 0.44971 0.8786717 0.4152415 0.2356067 155 155 155 255 0.526411 0.605088
0.170818 -0.268139 0.342987 0.8666847 -0.3780416 -0.3254874 155 155 155 255 0.779781 0.419508
0.143461 0.149985 0.200273 0.8883876 0.3942799 0.2351825 155 155 155 255 0.543631 0.637456
0.150457 0.076847 0.093472 0.8857359 -0.05511774 -0.4609056 155 155 155 255 0.706465 0.366507
0.088818 0.266117 0.057757 0.6224409 0.5562752 -0.550568 155 155 155 255 0.574436 0.283832
0.076504 0.304 0.111158 0.5407709 0.8388536 -0.06238161 155 155 155 255 0.456751 0.484637
-0.014185 0.299588 0.093386 -0.4918191 0.8489257 -0.1934922 155 155 155 255 0.467756 0.285423
0.00575 -0.170455 1.66072 0.8900453 -0.2438214 0.3851888 155 155 155 255 0.731135 0.731157
-0.037392 -0.217998 1.660765 0.1706625 -0.690125 0.7032793 155 155 155 255 0.806723 0.740361
0.113108 -0.294695 1.500496 0.8597369 -0.2909435 0.4197671 155 155 155 255 0.742022 0.735059
-0.043585 -0.379193 1.554026 0.1196051 -0.7428402 0.6586981 155 155 155 255 0.843860 0.712731
-0.072761 -0.573115 1.198016 0.05368309 -0.9655336 0.2546822 155 155 155 255 0.967916 0.529360
0.144698 -0.443666 1.215663 0.8548409 -0.4747249 0.2094834 155 155 155 255 0.864083 0.580590
-0.057961 -0.593686 0.699419 0.04989837 -0.9729073 -0.2257467 155 155 155 255 0.972432 0.359981
0.179777 -0.449255 0.752668 0.8880851 -0.4562959 -0.0556677 155 155 155 255 0.871295 0.463357
0.170818 -0.268139 0.342987 0.8666847 -0.3780416 -0.3254874 155 155 155 255 0.826926 0.371464
-0.02379 -0.365038 0.271889 0.07629783 -0.7599292 -0.6455125 155 155 155 255 0.901793 0.218711
0.013972 0.007213 0.00453 0.1034003 -0.3395898 -0.9348728 155 155 155 255 0.800370 0.143608
0.150457 0.076847 0.093472 0.8857359 -0.05511774 -0.4609056 155 155 155 255 0.736410 0.304663
0.088818 0.266117 0.057757 0.6224409 0.5562752 -0.550568 155 155 155 255 0.610713 0.230621
0.043014 0.200913 0.004396 0.2252322 0.1683749 -0.959646 155 155 155 255 0.701644 0.117817
-0.004525 0.244069 0.022192 -0.3586354 0.5052814 -0.7849021 155 155 155 255 0.626827 0.107399
0.088818 0.266117 0.057757 0.6224409 0.5562752 -0.550568 155 155 155 255 0.601318 0.106938
0.043014 0.200913 0.004396 0.2252322 0.1683749 -0.959646 155 155 155 255 0.698128 0.108395
0.013972 0.007213 0.00453 0.1034003 -0.3395898 -0.9348728 155 155 155 255 0.792319 0.137651
-0.104012 0.060947 0.040148 -0.6996808 -0.01632732 -0.714269 155 155 155 255 0.723834 0.144366
-0.02379 -0.365038 0.271889 0.07629783 -0.7599292 -0.6455125 155 155 155 255 0.890126 0.212499
-0.20956 -0.283149 0.289707 -0.7654313 -0.3857978 -0.5150484 155 155 155 255 0.802662 0.214722
-0.276309 -0.488909 0.717238 -0.8267137 -0.5337875 -0.1778072 155 155 155 255 0.863352 0.338602
-0.057961 -0.593686 0.699419 0.04989837 -0.9729073 -0.2257467 155 155 155 255 0.960764 0.353768
-0.276142 -0.488601 1.198033 -0.8161759 -0.5422346 0.1995956 155 155 155 255 0.866049 0.498425
-0.072761 -0.573115 1.198016 0.05368309 -0.9655336 0.2546822 155 155 155 255 0.957148 0.520694
-0.043585 -0.379193 1.554026 0.1196051 -0.7428402 0.6586981 155 155 155 255 0.840343 0.703311
-0.217056 -0.335191 1.518443 -0.7555339 -0.3658646 0.5434259 155 155 155 255 0.774456 0.694830
-0.037392 -0.217998 1.660765 0.1706625 -0.690125 0.7032793 155 155 155 255 0.804105 0.731321
-0.105197 -0.189823 1.660771 -0.7854735 -0.2922219 0.5455619 155 155 155 255 0.741854 0.713329
0.076504 0.304 0.111158 0.5407709 0.8388536 -0.06238161 155 155 155 255 0.422430 0.525646
-0.014185 0.299588 0.093386 -0.4918191 0.8489257 -0.1934922 155 155 155 255 0.417391 0.214377
0.041299 0.309308 0.146783 0.04632821 0.9106348 0.4106068 155 155 155 255 0.339620 0.596148
0.028127 0.221331 0.253688 0.03930891 0.7810481 0.6232324 155 155 155 255 0.420187 0.702233
0.143461 0.149985 0.200273 0.8883876 0.3942799 0.2351825 155 155 155 255 0.513844 0.669335
0.14708 -0.066455 0.44971 0.8786717 0.4152415 0.2356067 155 155 155 255 0.483040 0.623422
-0.018443 0.030435 0.503128 -0.02960341 0.8915802 0.4518942 155 155 155 255 0.357699 0.625763
0.128711 -0.189456 0.841556 0.8444868 0.5168664 0.1403255 155 155 155 255 0.449539 0.542365
-0.036781 -0.092598 0.877164 0.0002750048 0.9888474 0.1489326 155 155 155 255 0.316047 0.513910
0.108616 -0.204177 1.23333 0.8672208 0.4978219 -0.01007108 155 155 155 255 0.444105 0.474608
-0.054284 -0.089734 1.215505 -0.01922753 0.9990506 -0.03909508 155 155 155 255 0.316047 0.403400
0.098989 -0.148557 1.46479 0.8133922 0.5709803 0.1112418 155 155 155 255 0.426944 0.520615
-0.054204 -0.089585 1.447 -0.07031654 0.9972138 -0.02490354 155 155 155 255 0.317006 0.371646
-0.001313 -0.097398 1.625059 0.8065271 0.5899333 -0.03863667 155 155 155 255 0.445004 0.483490
-0.033884 -0.074506 1.625055 0.02197357 0.9556209 -0.2937787 155 155 155 255 0.326075 0.336383
-0.014185 0.299588 0.093386 -0.4918191 0.8489257 -0.1934922 155 155 155 255 0.350962 0.392409
0.088818 0.266117 0.057757 0.6224409 0.5562752 -0.550568 155 155 155 255 0.417391 0.214377
-0.004525 0.244069 0.022192 -0.3586354 0.5052814 -0.7849021 155 155 155 255 0.586173 0.119941
-0.104012 0.060947 0.040148 -0.6996808 -0.01632732 -0.714269 155 155 155 255 0.684997 0.156403
-0.125974 0.154347 0.164747 -0.8604023 0.5095513 0.008087228 155 155 155 255 0.409913 0.506063
-0.215693 -0.084095 0.414231 -0.9040386 0.4245212 0.04996008 155 155 155 255 0.396329 0.481185
-0.20956 -0.283149 0.289707 -0.7654313 -0.3857978 -0.5150484 155 155 155 255 0.761109 0.224050
-0.274522 -0.237034 0.823916 -0.9032064 0.4274474 0.03882049 155 155 155 255 0.388178 0.439056
-0.276309 -0.488909 0.717238 -0.8267137 -0.5337875 -0.1778072 155 155 155 255 0.819082 0.339554
-0.256791 -0.239421 1.215672 -0.895887 0.4419769 0.04519881 155 155 155 255 0.383643 0.411350
-0.276142 -0.488601 1.198033 -0.8161759 -0.5422346 0.1995956 155 155 155 255 0.821779 0.490876
-0.210911 -0.17411 1.464914 -0.826779 0.5285823 0.1924505 155 155 155 255 0.389057 0.497374
-0.217056 -0.335191 1.518443 -0.7555339 -0.3658646 0.5434259 155 155 155 255 0.725652 0.690744
-0.094651 -0.119406 1.625105 -0.826795 0.5541371 0.09665412 155 155 155 255 0.402681 0.474382
-0.105197 -0.189823 1.660771 -0.7854735 -0.2922219 0.5455619 155 155 155 255 0.695766 0.703452
-0.094651 -0.119406 1.625105 -0.826795 0.5541371 0.09665412 155 155 155 255 0.366403 0.422751
-0.033884 -0.074506 1.625055 0.02197357 0.9556209 -0.2937787 155 155 155 255 0.322558 0.335462
-0.210911 -0.17411 1.464914 -0.826779 0.5285823 0.1924505 155 155 155 255 0.353679 0.457457
-0.054204 -0.089585 1.447 -0.07031654 0.9972138 -0.02490354 155 155 155 255 0.311671 0.371231
-0.054284 -0.089734 1.215505 -0.01922753 0.9990506 -0.03909508 155 155 155 255 0.309813 0.394104
-0.256791 -0.239421 1.215672 -0.895887 0.4419769 0.04519881 155 155 155 255 0.346427 0.410041
-0.274522 -0.237034 0.823916 -0.9032064 0.4274474 0.03882049 155 155 155 255 0.349144 0.458088
-0.036781 -0.092598 0.877164 0.0002750048 0.9888474 0.1489326 155 155 155 255 0.310712 0.504995
-0.018443 0.030435 0.503128 -0.02960341 0.8915802 0.4518942 155 155 155 255 0.349647 0.614139
-0.215693 -0.084095 0.414231 -0.9040386 0.4245212 0.04996008 155 155 155 255 0.370879 0.519429
-0.125974 0.154347 0.164747 -0.8604023 0.5095513 0.008087228 155 155 155 255 0.397148 0.560304
0.028127 0.221331 0.253688 0.03930891 0.7810481 0.6232324 155 155 155 255 0.408519 0.687520
0.041299 0.309308 0.146783 0.04632821 0.9106348 0.4106068 155 155 155 255 0.334305 0.585967
-0.014185 0.299588 0.093386 -0.4918191 0.8489257 -0.1934922 155 155 155 255 0.334601 0.456462
0.142217 -0.448229 1.215667 0.5087209 -0.8594754 0.05005078 155 155 155 255 0.870056 0.666423
-0.060443 -0.598252 0.699423 0.03882067 -0.9987352 0.03195355 155 155 155 255 0.623253 0.156363
0.177295 -0.453822 0.752671 0.5105336 -0.858458 0.04904488 155 155 155 255 0.870056 0.156363
-0.075243 -0.577683 1.19802 0.07278777 -0.9964095 0.04324546 155 155 155 255 0.623253 0.666423
-0.278623 -0.493166 1.198037 -0.3978462 -0.9172506 0.01922735 155 155 155 255 0.376450 0.666423
-0.278791 -0.493474 0.717242 -0.4325778 -0.9015963 0.0007020143 155 155 155 255 0.376450 0.156363
3 0 1 2 
3 2 1 3 
3 4 5 6 
3 6 5 7 
3 8 9 10 
3 10 9 11 
3 12 13 14 
3 14 13 15 
3 16 17 18 
3 18 17 19 
3 20 21 22 
3 22 21 23 
3 24 25 26 
3 26 25 27 
3 28 29 30 
3 30 29 31 
3 32 33 34 
3 34 33 35 
3 33 32 36 
3 36 32 37 
3 37 38 36 
3 39 38 37 
3 39 40 38 
3 41 40 39 
3 40 41 42 
3 42 41 43 
3 43 44 42 
3 42 44 45 
3 44 46 45 
3 47 48 49 
3 49 48 50 
3 50 51 49 
3 49 51 52 
3 53 52 51 
3 53 54 52 
3 53 55 54 
3 56 55 53 
3 56 57 55 
3 55 57 58 
3 59 58 60 
3 60 58 57 
3 61 62 63 
3 64 61 63 
3 65 61 64 
3 64 66 65 
3 65 66 67 
3 67 66 68 
3 68 66 69 
3 68 69 70 
3 70 69 71 
3 72 70 71 
3 73 70 72 
3 74 73 72 
3 75 73 74 
3 76 77 78 
3 79 76 78 
3 80 76 79 
3 81 80 82 
3 82 80 79 
3 81 82 83 
3 83 82 84 
3 83 84 85 
3 85 84 86 
3 86 87 85 
3 88 87 86 
3 88 89 87 
3 90 89 88 
3 91 92 93 
3 94 91 93 
3 95 91 94 
3 96 95 97 
3 97 95 94 
3 96 97 98 
3 98 97 99 
3 98 99 100 
3 100 99 101 
3 101 102 100 
3 103 102 101 
3 103 104 102 
3 105 104 103 
3 106 107 108 
3 108 107 109 
3 109 110 108 
3 108 110 111 
3 110 112 111 
3 113 112 110 
3 114 115 113 
3 113 115 112 
3 115 114 116 
3 116 114 117 
3 117 118 116 
3 116 118 119 
3 120 121 122 
3 121 120 123 
3 124 121 123 
3 124 125 121 
