ply
format ascii 1.0
comment Created by Blender 2.82 (sub 7) - www.blender.org, source file: ''
element vertex 24
property float x
property float y
property float z
property float nx
property float ny
property float nz
property uchar red
property uchar green
property uchar blue
property uchar alpha
element face 12
property list uchar uint vertex_indices
end_header
-7.417249 0.154829 -6.815104 0.000000 1.000000 0.000000 147 255 119 255
7.417249 0.154827 6.815104 0.000000 1.000000 0.000000 148 255 120 255
7.417249 0.154829 -6.815104 0.000000 1.000000 0.000000 147 255 119 255
7.417249 0.154827 6.815104 0.000000 -0.000000 1.000000 148 255 120 255
-7.417249 -0.154829 6.815104 0.000000 -0.000000 1.000000 150 255 122 255
7.417249 -0.154829 6.815104 0.000000 -0.000000 1.000000 148 255 121 255
-7.417249 0.154827 6.815104 -1.000000 0.000000 0.000000 147 255 119 255
-7.417249 -0.154827 -6.815104 -1.000000 0.000000 0.000000 216 255 208 255
-7.417249 -0.154829 6.815104 -1.000000 0.000000 0.000000 150 255 122 255
7.417249 -0.154827 -6.815104 0.000000 -1.000000 -0.000000 147 255 120 255
-7.417249 -0.154829 6.815104 0.000000 -1.000000 -0.000000 150 255 122 255
-7.417249 -0.154827 -6.815104 0.000000 -1.000000 -0.000000 216 255 208 255
7.417249 0.154829 -6.815104 1.000000 -0.000000 -0.000000 147 255 119 255
7.417249 -0.154829 6.815104 1.000000 -0.000000 -0.000000 148 255 121 255
7.417249 -0.154827 -6.815104 1.000000 -0.000000 -0.000000 147 255 120 255
-7.417249 0.154829 -6.815104 0.000000 0.000000 -1.000000 147 255 119 255
7.417249 -0.154827 -6.815104 0.000000 0.000000 -1.000000 147 255 120 255
-7.417249 -0.154827 -6.815104 0.000000 0.000000 -1.000000 216 255 208 255
-7.417249 0.154827 6.815104 0.000000 1.000000 0.000000 147 255 119 255
-7.417249 0.154827 6.815104 0.000000 0.000000 1.000000 147 255 119 255
-7.417249 0.154829 -6.815104 -1.000000 0.000000 0.000000 147 255 119 255
7.417249 -0.154829 6.815104 0.000000 -1.000000 -0.000000 148 255 121 255
7.417249 0.154827 6.815104 1.000000 -0.000000 0.000000 148 255 120 255
7.417249 0.154829 -6.815104 0.000000 0.000000 -1.000000 147 255 119 255
3 0 1 2
3 3 4 5
3 6 7 8
3 9 10 11
3 12 13 14
3 15 16 17
3 0 18 1
3 3 19 4
3 6 20 7
3 9 21 10
3 12 22 13
3 15 23 16
