ply
format ascii 1.0
comment VCGLIB generated
element vertex 24
property float x
property float y
property float z
property float nx
property float ny
property float nz
property uchar red
property uchar green
property uchar blue
property uchar alpha
property float texture_u
property float texture_v
element face 12
property list uchar int vertex_indices
end_header
-7.417249 0.154829 -6.815104 0 1 0 147 255 119 255 -7.417249 0.154829
7.417249 0.154827 6.815104 0 1 0 148 255 120 255 7.417249 0.154827
7.417249 0.154829 -6.815104 0 1 0 147 255 119 255 7.417249 0.154829
7.417249 0.154827 6.815104 0 -0 1 148 255 120 255 7.417249 0.154827
-7.417249 -0.154829 6.815104 0 -0 1 150 255 122 255 -7.417249 -0.154829
7.417249 -0.154829 6.815104 0 -0 1 148 255 121 255 7.417249 -0.154829
-7.417249 0.154827 6.815104 -1 0 0 147 255 119 255 -7.417249 0.154827
-7.417249 -0.154827 -6.815104 -1 0 0 216 255 208 255 -7.417249 -0.154827
-7.417249 -0.154829 6.815104 -1 0 0 150 255 122 255 -7.417249 -0.154829
7.417249 -0.154827 -6.815104 0 -1 -0 147 255 120 255 7.417249 -0.154827
-7.417249 -0.154829 6.815104 0 -1 -0 150 255 122 255 -7.417249 -0.154829
-7.417249 -0.154827 -6.815104 0 -1 -0 216 255 208 255 -7.417249 -0.154827
7.417249 0.154829 -6.815104 1 -0 -0 147 255 119 255 7.417249 0.154829
7.417249 -0.154829 6.815104 1 -0 -0 148 255 121 255 7.417249 -0.154829
7.417249 -0.154827 -6.815104 1 -0 -0 147 255 120 255 7.417249 -0.154827
-7.417249 0.154829 -6.815104 0 0 -1 147 255 119 255 -7.417249 0.154829
7.417249 -0.154827 -6.815104 0 0 -1 147 255 120 255 7.417249 -0.154827
-7.417249 -0.154827 -6.815104 0 0 -1 216 255 208 255 -7.417249 -0.154827
-7.417249 0.154827 6.815104 0 1 0 147 255 119 255 -7.417249 0.154827
-7.417249 0.154827 6.815104 0 0 1 147 255 119 255 -7.417249 0.154827
-7.417249 0.154829 -6.815104 -1 0 0 147 255 119 255 -7.417249 0.154829
7.417249 -0.154829 6.815104 0 -1 -0 148 255 121 255 7.417249 -0.154829
7.417249 0.154827 6.815104 1 -0 0 148 255 120 255 7.417249 0.154827
7.417249 0.154829 -6.815104 0 0 -1 147 255 119 255 7.417249 0.154829
3 0 1 2 
3 3 4 5 
3 6 7 8 
3 9 10 11 
3 12 13 14 
3 15 16 17 
3 0 18 1 
3 3 19 4 
3 6 20 7 
3 9 21 10 
3 12 22 13 
3 15 23 16 
