ply
format ascii 1.0
comment VCGLIB generated
element vertex 80
property float x
property float y
property float z
property float nx
property float ny
property float nz
property uchar red
property uchar green
property uchar blue
property uchar alpha
property float texture_u
property float texture_v
element face 42
property list uchar int vertex_indices
end_header
3.44757 15.6816 -7.825152 -0.005402192 0.9620081 -0.2729677 155 155 155 167 0.788048 0.980505
-3.95407 15.5328 -7.921772 -0.01352002 0.9571843 -0.2891634 155 155 155 251 0.688509 0.985189
-16.673 20.1632 8.001427 -0.00546307 0.9599723 -0.2800416 155 155 155 167 0.516114 0.553361
16.5429 20.1127 7.985287 -0.00311303 0.9635704 -0.2674366 155 155 155 251 0.962799 0.548861
16.0735 15.8305 -7.728522 -0.009339047 0.9648478 -0.2626433 155 155 155 247 0.957843 0.974991
-16.6772 15.3839 -8.018403 -0.009033059 0.9582262 -0.2858689 155 155 155 247 0.517406 0.990718
14.813 15.0088 -6.778282 0.003479091 -0.9656613 0.2597808 155 155 155 251 0.532499 0.951088
14.813 18.7776 7.230607 0.003479091 -0.9656613 0.2597808 155 155 155 247 0.539329 0.571773
-15.8517 18.6437 7.143647 0.003479091 -0.9656613 0.2597808 155 155 155 251 0.951816 0.568415
-15.8517 14.8748 -6.865242 0.003479091 -0.9656613 0.2597808 155 155 155 247 0.944986 0.947729
16.0735 15.8305 -7.728522 0.9971624 0.07123224 -0.02435477 155 155 155 251 0.951020 0.277915
16.5429 20.1127 7.985287 0.9977025 0.05163811 -0.04385594 155 155 155 247 0.707488 0.303938
17.6308 -0.381629 8.592 0.9970226 0.07403901 -0.02154629 155 155 155 251 0.697721 0.052789
17.6308 -0.381631 -8.592 0.9954183 0.09561652 0 155 155 155 247 0.963860 0.052349
-16.6772 15.3839 -8.018403 0.006409111 0.03643963 -0.9993153 155 155 155 251 0.555575 0.554030
-3.95407 15.5328 -7.921772 0.007080192 0.04226915 -0.9990812 155 155 155 247 0.962133 0.549942
-3.96198 13.9504 -7.988802 0.005158131 0.04037702 -0.9991713 155 155 155 167 0.961871 0.593015
-4.03315 -0.381631 -8.592 0 0.04202407 -0.9991166 155 155 155 247 0.959510 0.983115
-17.6308 -0.381631 -8.592 0.002960057 0.03921676 -0.9992263 155 155 155 251 0.525022 0.983048
-3.96198 13.9504 -7.988802 0.9999836 -0.005707083 0.0004580067 155 155 155 251 0.668017 0.568375
-3.96198 13.9504 -6.865242 0.9999835 -0.005737083 0 155 155 155 247 0.693395 0.567676
-4.03315 1.564409 -7.468441 0.9999458 -0.005341036 0.00894206 155 155 155 251 0.681378 0.957648
-4.03315 -0.381631 -8.592 0.999943 -0.005341021 0.009247037 155 155 155 247 0.656002 0.958347
-3.96198 13.9504 -6.865242 -0.001862004 -0.04678511 0.9989033 155 155 155 251 0.693395 0.567676
-15.8517 14.8748 -6.865242 -0.00351004 -0.04516751 0.9989733 155 155 155 247 0.962133 0.549942
-16.1443 1.564409 -7.468441 -0.001709043 -0.04693819 0.9988964 155 155 155 251 0.955123 0.965178
-4.03315 1.564409 -7.468441 0 -0.04861637 0.9988176 155 155 155 247 0.681378 0.957648
14.813 15.0088 -6.778282 -0.9929752 -0.117347 0.01516838 155 155 155 251 0.919146 0.285732
16.6202 1.564409 -7.468441 -0.991087 -0.1332169 0 155 155 155 247 0.929481 0.072616
16.6202 1.564411 7.49333 -0.9928797 -0.1182615 0.0142833 155 155 155 251 0.697721 0.072931
14.813 18.7776 7.230607 -0.9941898 -0.103948 0.02795553 155 155 155 247 0.702143 0.303938
17.6308 -0.381631 -8.592 0.002869013 0.05044723 -0.9987226 155 155 155 251 0.272141 0.043889
3.93596 -0.381631 -8.592 0 0.04764017 -0.9988646 155 155 155 247 0.667696 0.044027
3.49641 14.0843 -7.901833 0.007385172 0.04898314 -0.9987723 155 155 155 167 0.680247 0.462346
16.0735 15.8305 -7.728522 0.006348133 0.05334712 -0.9985558 155 155 155 251 0.316940 0.512838
3.44757 15.6816 -7.825152 0.009583113 0.04821957 -0.9987908 155 155 155 247 0.681641 0.508538
-3.95407 15.5328 -7.921772 0.01101721 0.04306281 -0.9990116 155 155 155 251 0.618104 0.972934
3.44757 15.6816 -7.825152 0.009583113 0.04821957 -0.9987908 155 155 155 247 0.404298 0.977288
3.49641 14.0843 -7.901833 0.007385172 0.04898314 -0.9987723 155 155 155 251 0.402903 0.931096
-3.96198 13.9504 -7.988802 0.01086528 0.04223908 -0.9990485 155 155 155 247 0.618346 0.927186
3.49641 14.0843 -7.901833 0.0179454 -0.999839 0 155 155 155 251 -0.003528 0.965905
3.49641 14.0843 -6.778282 0.0179454 -0.999839 0 155 155 155 247 0.019196 0.984595
-3.96198 13.9504 -6.865242 0.0179454 -0.999839 0 155 155 155 251 0.017520 0.981588
-3.96198 13.9504 -7.988802 0.0179454 -0.999839 0 155 155 155 247 -0.005203 0.967460
3.93596 -0.381631 -8.592 -0.9978152 -0.0330214 0.0572227 155 155 155 247 0.389556 0.512506
3.93596 1.564409 -7.468441 -0.9979205 -0.03311388 0.05530147 155 155 155 251 0.373790 0.576397
3.49641 14.0843 -7.901833 -0.999384 -0.03497487 0.002899072 155 155 155 251 0.401646 0.932267
3.49641 14.0843 -6.778282 -0.999385 -0.03506691 0 155 155 155 247 0.383593 0.933928
3.49641 14.0843 -6.778282 -0.003113033 0.03360135 0.9994305 155 155 155 251 0.689192 0.600250
14.813 15.0088 -6.778282 -0.00299108 0.03662298 0.9993247 155 155 155 247 0.533747 0.560939
-15.8517 14.8748 -6.865242 -0.005890012 -0.03436407 0.999392 155 155 155 251 0.954967 0.566467
-3.96198 13.9504 -6.865242 -0.009400032 -0.1209144 0.9926184 155 155 155 247 0.791649 0.606038
3.93596 1.564409 -7.468441 0.001984008 -0.05285821 0.9986001 155 155 155 251 0.670665 0.105694
16.6202 1.564409 -7.468441 0 -0.0512425 0.9986863 155 155 155 247 0.343932 0.111220
14.813 15.0088 -6.778282 0.00222805 -0.05307318 0.9985881 155 155 155 251 0.364146 0.485062
3.49641 14.0843 -6.778282 0.004456042 -0.05487252 0.9984835 155 155 155 247 0.680233 0.462384
-16.6772 15.3839 -8.018403 -0.9985933 0.05249344 -0.007477204 155 155 155 251 0.039021 0.080443
-17.6308 -0.381631 -8.592 -0.9981763 0.06036644 0 155 155 155 247 0.032118 0.394246
-17.6308 -0.381629 8.592 -0.9985624 0.05316446 -0.006836188 155 155 155 251 0.241302 0.394140
-16.673 20.1632 8.001427 -0.9988423 0.04617511 -0.01348903 155 155 155 247 0.234032 0.044292
-15.8517 14.8748 -6.865242 0.9998104 -0.01931847 0.00244106 155 155 155 251 0.052797 0.083616
-15.8517 18.6437 7.143647 0.9998446 -0.01702947 0.004578126 155 155 155 247 0.223334 0.064639
-16.1443 1.564411 7.49333 0.9998088 -0.01941044 0.002350054 155 155 155 251 0.227597 0.388310
-16.1443 1.564409 -7.468441 0.9997586 -0.02197306 0 155 155 155 247 0.045459 0.388319
16.5429 20.1127 7.985287 0.0001530045 0.02926787 0.9995716 155 155 155 251 0.534343 0.549412
-16.673 20.1632 8.001427 0.000519008 0.02868744 0.9995883 155 155 155 247 0.950974 0.548756
-17.6308 -0.381629 8.592 0.0003360022 0.02899319 0.9995795 155 155 155 251 0.962990 0.817287
17.6308 -0.381629 8.592 0 0.02957261 0.9995627 155 155 155 247 0.520699 0.817291
14.813 18.7776 7.230607 0.0008550096 -0.01681619 -0.9998583 155 155 155 251 0.558534 0.548756
16.6202 1.564411 7.49333 0 -0.01525909 -0.9998836 155 155 155 247 0.534917 0.799097
-16.1443 1.564411 7.49333 0.001953008 -0.01879908 -0.9998214 155 155 155 251 0.962990 0.799107
-15.8517 18.6437 7.143647 0.002899085 -0.02050861 -0.9997855 155 155 155 247 0.959173 0.550497
-4.03315 -0.381631 -8.592 0 0.5000028 -0.8660238 155 155 155 251 0.677830 0.863744
-4.03315 1.564409 -7.468441 0 0.5000028 -0.8660238 155 155 155 247 0.677830 0.842815
3.93596 1.564409 -7.468441 0 0.5000028 -0.8660238 155 155 155 251 0.782528 0.842815
3.93596 -0.381631 -8.592 0 0.5000028 -0.8660238 155 155 155 247 0.782528 0.863744
-16.1443 1.564409 -7.468441 0 1 0 155 155 155 251 0.518715 0.842815
-16.1443 1.564411 7.49333 0 1 0 155 155 155 247 0.518715 0.564109
16.6202 1.564411 7.49333 0 1 0 155 155 155 251 0.949172 0.564109
16.6202 1.564409 -7.468441 0 1 0 155 155 155 247 0.949172 0.842815
3 0 1 2 
3 0 2 3 
3 0 3 4 
3 1 5 2 
3 6 7 8 
3 6 8 9 
3 10 11 12 
3 10 12 13 
3 14 15 16 
3 16 17 18 
3 18 14 16 
3 19 20 21 
3 19 21 22 
3 23 24 25 
3 23 25 26 
3 27 28 29 
3 27 29 30 
3 31 32 33 
3 31 33 34 
3 33 35 34 
3 36 37 38 
3 36 38 39 
3 40 41 42 
3 40 42 43 
3 44 45 46 
3 45 47 46 
3 48 49 50 
3 50 51 48 
3 52 53 54 
3 52 54 55 
3 56 57 58 
3 56 58 59 
3 60 61 62 
3 60 62 63 
3 64 65 66 
3 66 67 64 
3 68 69 70 
3 68 70 71 
3 72 73 74 
3 74 75 72 
3 76 77 78 
3 78 79 76 
