ply
format ascii 1.0
comment Created by Blender 2.82 (sub 7) - www.blender.org, source file: ''
element vertex 323
property float x
property float y
property float z
property float nx
property float ny
property float nz
property uchar red
property uchar green
property uchar blue
property uchar alpha
element face 360
property list uchar uint vertex_indices
end_header
0.007235 -2.379538 0.000775 -0.000031 -1.000000 -0.000122 107 4 24 255
0.007238 -2.281197 0.680752 -0.000031 -0.989685 0.143132 107 4 24 255
-0.476615 -2.233876 0.666765 -0.102481 -0.984680 0.140873 107 4 24 255
-0.639422 -2.281115 0.210902 -0.136265 -0.989685 0.044130 107 4 24 255
-0.775611 -2.233751 -0.253568 -0.165807 -0.984649 -0.053987 107 4 24 255
-0.392404 -2.281023 -0.549271 -0.084231 -0.989654 -0.116031 107 4 24 255
0.007240 -2.233703 -0.822325 -0.000031 -0.984649 -0.174444 107 4 24 255
0.406885 -2.281049 -0.549277 0.084170 -0.989654 -0.116031 107 4 24 255
0.790107 -2.233799 -0.253573 0.165746 -0.984680 -0.053987 107 4 24 255
0.653910 -2.281157 0.210905 0.136204 -0.989685 0.044130 107 4 24 255
0.491101 -2.233906 0.666774 0.208777 -0.934782 0.287271 107 4 24 255
0.007367 -1.887385 1.456390 0.000000 -0.794702 0.606952 107 4 24 255
0.748221 -2.021574 1.020665 0.309000 -0.850673 0.425214 107 4 24 255
0.974878 -1.725342 1.332634 0.398053 -0.735832 0.547777 107 4 24 255
0.748252 -1.502321 1.700542 0.157109 -0.726463 0.668966 107 4 24 255
0.491141 -1.216750 1.998562 0.104862 -0.522935 0.845882 107 4 24 255
0.007364 -1.242687 2.040514 0.000000 -0.525834 0.850551 107 4 24 255
-0.476419 -1.216759 1.998577 -0.104831 -0.522935 0.845882 107 4 24 255
-0.733533 -1.502340 1.700562 -0.157079 -0.726463 0.668966 107 4 24 255
-0.960166 -1.725368 1.332654 -0.398022 -0.735832 0.547777 107 4 24 255
-0.733502 -2.021598 1.020677 -0.308969 -0.850703 0.425214 107 4 24 255
-0.476379 -2.233923 0.666779 -0.254830 -0.901120 0.350719 107 4 24 255
0.007364 -2.281198 0.680753 0.000000 -0.891629 0.452712 107 4 24 255
-1.376814 -1.887351 0.450699 -0.577288 -0.794702 0.187506 107 4 24 255
-1.380091 -1.502328 1.230793 -0.587695 -0.726463 0.356090 107 4 24 255
-1.742956 -1.216742 1.078349 -0.772088 -0.522935 0.361064 158 6 35 255
-1.932321 -1.242658 0.631204 -0.808954 -0.525834 0.262764 161 7 36 255
-2.041900 -1.216714 0.158152 -0.836909 -0.522904 0.161596 161 7 36 255
-1.837924 -1.502276 -0.178460 -0.684805 -0.726463 0.057253 135 6 30 255
-1.558062 -1.725292 -0.507673 -0.644002 -0.735801 -0.209296 107 4 24 255
-1.191341 -2.021528 -0.388521 -0.499924 -0.850673 -0.162481 107 4 24 255
-0.775331 -2.233873 -0.253347 -0.412336 -0.901089 -0.134037 107 4 24 255
-0.639150 -2.281180 0.211027 -0.430586 -0.891629 0.139836 107 4 24 255
-0.848060 -1.887253 -1.176443 -0.356731 -0.794671 -0.491104 112 4 25 255
-1.590931 -1.502241 -0.938494 -0.520280 -0.726432 -0.448927 158 6 35 255
-1.558066 -1.216661 -1.330670 -0.581988 -0.522904 -0.622761 250 10 56 255
-1.191347 -1.242573 -1.648921 -0.499924 -0.525773 -0.688162 253 10 56 255
-0.775337 -1.216635 -1.899305 -0.412336 -0.522874 -0.745994 255 10 57 255
-0.392199 -1.502192 -1.809355 -0.266091 -0.726402 -0.633625 242 10 54 255
0.007364 -1.725218 -1.644951 0.000000 -0.735771 -0.677175 168 7 38 255
0.007364 -2.021461 -1.259389 0.000000 -0.850642 -0.525712 108 4 24 255
0.007363 -2.233825 -0.821990 0.000000 -0.901059 -0.433607 107 4 24 255
-0.392195 -2.281128 -0.548983 -0.266091 -0.891598 -0.366344 107 4 24 255
0.862782 -1.887226 -1.176426 0.356792 -0.794641 -0.491104 107 4 24 255
0.406924 -1.502182 -1.809344 0.266121 -0.726402 -0.633595 161 7 36 255
0.790054 -1.216620 -1.899282 0.412366 -0.522874 -0.745994 226 9 51 255
1.206052 -1.242549 -1.648891 0.499954 -0.525773 -0.688162 176 8 39 255
1.572755 -1.216631 -1.330638 0.582018 -0.522874 -0.622730 160 7 36 255
1.605619 -1.502204 -0.938471 0.520310 -0.726402 -0.448927 161 7 36 255
1.572751 -1.725250 -0.507659 0.644002 -0.735801 -0.209296 151 6 33 255
1.206047 -2.021490 -0.388513 0.499954 -0.850642 -0.162481 107 4 24 255
0.790047 -2.233846 -0.253344 0.412366 -0.901089 -0.134037 107 4 24 255
0.406920 -2.281114 -0.548980 0.266121 -0.891598 -0.366344 107 4 24 255
1.391516 -1.887307 0.450688 0.577288 -0.794671 0.187506 107 4 24 255
1.852599 -1.502232 -0.178455 0.684805 -0.726432 0.057253 161 7 36 255
2.056562 -1.216675 0.158147 0.731712 -0.669210 0.129276 161 7 36 255
1.946990 -1.242619 0.631185 0.704825 -0.671377 0.228950 144 6 32 255
1.757635 -1.216708 1.078320 0.667989 -0.669240 0.325358 107 4 24 255
1.394789 -1.502295 1.230766 0.587725 -0.726463 0.356059 107 4 24 255
0.653872 -2.281157 0.211025 0.430616 -0.891598 0.139836 107 4 24 255
0.007368 -1.054126 -2.143425 0.000000 -0.447188 -0.894406 255 10 57 255
0.007366 -0.401895 -2.359469 0.000000 -0.314432 -0.949248 255 10 57 255
0.491241 -0.393251 -2.310889 0.102481 -0.314188 -0.943785 255 10 57 255
0.654059 -0.822156 -2.149334 0.136265 -0.402966 -0.904996 255 10 57 255
0.790258 -1.216466 -1.899298 0.165807 -0.488510 -0.856624 226 9 51 255
0.407031 -1.502121 -1.809371 0.084231 -0.546251 -0.833338 161 7 36 255
-0.392302 -1.502131 -1.809383 -0.084170 -0.546251 -0.833369 242 10 54 255
-0.775538 -1.216482 -1.899322 -0.165777 -0.488540 -0.856624 255 10 57 255
-0.639334 -0.822165 -2.149357 -0.136235 -0.402966 -0.904996 255 10 57 255
-0.476515 -0.393254 -2.310907 -0.102451 -0.314188 -0.943785 255 10 57 255
2.046845 -1.054153 -0.661709 0.850612 -0.447188 -0.276437 161 7 36 255
2.252328 -0.401906 -0.728469 0.902768 -0.314432 -0.293374 232 10 51 255
2.355688 -0.393267 -0.253252 0.929258 -0.314188 -0.194220 164 7 37 255
2.252356 -0.822193 -0.048474 0.902799 -0.402997 -0.150090 161 7 36 255
2.056640 -1.216521 0.158336 0.903378 -0.425947 0.049440 161 7 36 255
1.852658 -1.502171 -0.178361 0.818567 -0.546251 -0.177465 161 7 36 255
1.605614 -1.502143 -0.938577 0.766503 -0.546251 -0.337657 161 7 36 255
1.572709 -1.216478 -1.330835 0.763421 -0.488540 -0.422437 160 7 36 255
1.852606 -0.822169 -1.278574 0.818567 -0.402966 -0.409284 205 9 47 255
2.056580 -0.393259 -1.173650 0.865902 -0.314188 -0.389141 253 10 57 255
1.267928 -1.054232 1.735966 0.525742 -0.447218 0.723563 107 4 24 255
1.394937 -0.401939 1.910789 0.558000 -0.314463 0.767937 107 4 24 255
0.974886 -0.393298 2.155956 0.471877 -0.314219 0.823756 107 4 24 255
0.748177 -0.822253 2.120947 0.421735 -0.402997 0.812220 107 4 24 255
0.490989 -1.216597 1.998694 0.369396 -0.488571 0.790429 107 4 24 255
0.748185 -1.502261 1.700625 0.421705 -0.546312 0.723655 107 4 24 255
1.394892 -1.502234 1.230726 0.558000 -0.546281 0.624622 107 4 24 255
1.757810 -1.216554 1.078213 0.637684 -0.488571 0.595508 107 4 24 255
1.794617 -0.822228 1.360587 0.642201 -0.402997 0.651997 111 4 24 255
1.757866 -0.393290 1.587027 0.637684 -0.314219 0.703269 159 7 35 255
-1.253222 -1.054254 1.736002 -0.525712 -0.447249 0.723563 109 4 24 255
-1.380239 -0.401948 1.910831 -0.557970 -0.314463 0.767937 161 7 36 255
-1.743187 -0.393301 1.587069 -0.637654 -0.314219 0.703269 161 7 36 255
-1.779939 -0.822252 1.360625 -0.642201 -0.403027 0.652028 161 7 36 255
-1.743130 -1.216587 1.078242 -0.637654 -0.488571 0.595508 158 6 35 255
-1.380194 -1.502267 1.230752 -0.557970 -0.546312 0.624653 107 4 24 255
-0.733466 -1.502279 1.700645 -0.421674 -0.546312 0.723655 107 4 24 255
-0.476266 -1.216605 1.998708 -0.369366 -0.488571 0.790460 107 4 24 255
-0.733458 -0.822263 2.120972 -0.421705 -0.403027 0.812220 107 4 24 255
-0.960174 -0.393305 2.155988 -0.471847 -0.314219 0.823756 161 7 36 255
-2.032180 -1.054189 -0.661735 -0.850612 -0.447218 -0.276437 177 8 40 255
-2.237677 -0.401921 -0.728498 -0.902768 -0.314432 -0.293374 255 10 57 255
-2.041917 -0.393272 -1.173690 -0.865902 -0.314188 -0.389172 255 10 57 255
-1.837929 -0.822192 -1.278614 -0.818537 -0.402997 -0.409314 255 10 57 255
-1.558019 -1.216507 -1.330869 -0.763421 -0.488540 -0.422468 250 10 56 255
-1.590924 -1.502181 -0.938604 -0.766503 -0.546281 -0.337657 158 6 35 255
-1.837982 -1.502215 -0.178370 -0.818567 -0.546281 -0.177465 135 6 30 255
-2.041978 -1.216561 0.158337 -0.865902 -0.488571 -0.107059 161 7 36 255
-2.237707 -0.822223 -0.048480 -0.902768 -0.402997 -0.150121 185 7 42 255
-2.341046 -0.393283 -0.253265 -0.929258 -0.314219 -0.194250 255 10 57 255
0.007367 -0.432000 2.356149 0.000000 -0.187719 0.982208 107 4 24 255
0.748287 -0.822533 2.120798 0.157140 -0.273690 0.948882 107 4 24 255
0.974962 -0.393715 2.155842 0.206214 -0.183660 0.961089 107 4 24 255
0.748324 0.017823 2.281401 0.157109 -0.095492 0.982940 107 4 24 255
0.491188 0.429395 2.313153 0.103122 -0.008271 0.994629 156 7 35 255
0.007364 0.438036 2.361723 0.000000 -0.006378 0.999969 161 7 36 255
-0.476465 0.429400 2.313171 -0.103061 -0.008271 0.994629 161 7 36 255
-0.733604 0.017823 2.281428 -0.157079 -0.095492 0.982940 161 7 36 255
-0.960250 -0.393722 2.155874 -0.206183 -0.183660 0.961089 161 7 36 255
-0.733567 -0.822543 2.120823 -0.157079 -0.273690 0.948882 107 4 24 255
-2.232495 -0.431988 0.728727 -0.934141 -0.187689 0.303446 161 7 36 255
-1.779761 -0.822532 1.360686 -0.853908 -0.273690 0.442579 161 7 36 255
-1.743052 -0.393718 1.587110 -0.850368 -0.183660 0.493057 161 7 36 255
-1.932488 0.017823 1.410348 -0.886288 -0.095492 0.453108 161 7 36 255
-2.042126 0.429391 1.175603 -0.914090 -0.008271 0.405347 245 10 55 255
-2.237794 0.438024 0.730458 -0.951048 -0.006378 0.308939 255 10 57 255
-2.341092 0.429382 0.255318 -0.977813 -0.008271 0.209235 255 10 57 255
-2.390343 0.017823 0.000962 -0.983398 -0.095492 0.154241 255 10 57 255
-2.340961 -0.393700 -0.253373 -0.977783 -0.183660 0.100803 255 10 57 255
-2.237599 -0.822503 -0.048630 -0.950987 -0.273690 0.143712 185 7 42 255
-1.376829 -0.431951 -1.904231 -0.577288 -0.187689 -0.794641 255 10 57 255
-1.837931 -0.822473 -1.278426 -0.684805 -0.273659 -0.675344 255 10 57 255
-2.041913 -0.393689 -1.173550 -0.731681 -0.183660 -0.656392 255 10 57 255
-1.932341 0.017823 -1.408316 -0.704825 -0.095492 -0.702902 255 10 57 255
-1.742979 0.429360 -1.585113 -0.667989 -0.008271 -0.744102 255 10 57 255
-1.380111 0.437991 -1.908734 -0.587725 -0.006378 -0.809015 255 10 57 255
-0.960181 0.429352 -2.153788 -0.501175 -0.008271 -0.865291 255 10 57 255
-0.733513 0.017823 -2.279223 -0.450606 -0.095462 -0.887570 255 10 57 255
-0.476386 -0.393671 -2.310860 -0.398053 -0.183660 -0.898770 255 10 57 255
-0.639158 -0.822445 -2.149300 -0.430586 -0.273659 -0.860042 255 10 57 255
1.391531 -0.431940 -1.904187 0.577319 -0.187689 -0.794641 255 10 57 255
0.653879 -0.822437 -2.149278 0.430616 -0.273659 -0.860012 255 10 57 255
0.491108 -0.393669 -2.310843 0.398083 -0.183660 -0.898740 255 10 57 255
0.748232 0.017823 -2.279197 0.450636 -0.095462 -0.887570 255 10 57 255
0.974893 0.429345 -2.153757 0.501206 -0.008271 -0.865261 255 10 57 255
1.394809 0.437982 -1.908693 0.587756 -0.006378 -0.808985 255 10 57 255
1.757658 0.429349 -1.585070 0.668020 -0.008271 -0.744072 255 10 57 255
1.947010 0.017823 -1.408273 0.704825 -0.095492 -0.702872 255 10 57 255
2.056575 -0.393676 -1.173513 0.731712 -0.183660 -0.656362 253 10 57 255
1.852606 -0.822448 -1.278389 0.684835 -0.273659 -0.675344 205 9 47 255
2.247128 -0.431774 0.728877 0.934141 -0.187628 0.303507 161 7 36 255
2.252314 -0.822307 -0.048437 0.951018 -0.273598 0.143803 161 7 36 255
2.355653 -0.393518 -0.253175 0.977783 -0.183599 0.100894 164 7 37 255
2.404981 0.017992 0.001154 0.983398 -0.095401 0.154332 222 9 49 255
2.355689 0.429514 0.255485 0.967772 0.146184 0.204901 249 10 55 255
2.252368 0.438153 0.730580 0.951018 -0.006317 0.309000 216 8 49 255
2.056702 0.429514 1.175669 0.914090 -0.008179 0.405408 161 7 36 255
1.947088 0.017992 1.410401 0.886288 -0.095401 0.453139 161 7 36 255
1.757690 -0.393518 1.587162 0.850368 -0.183599 0.493088 159 7 35 255
1.794430 -0.822306 1.360785 0.853908 -0.273598 0.442640 111 4 24 255
1.757664 -1.216521 1.078489 0.850337 -0.358989 0.384686 107 4 24 255
1.947043 -1.242445 0.631374 0.886288 -0.362712 0.287973 144 6 32 255
0.007590 2.415787 0.001209 0.000092 1.000000 0.000031 255 10 57 255
-0.392082 2.317379 0.551292 -0.084078 0.989685 0.115940 255 10 57 255
0.007574 2.270028 0.824352 0.000092 0.984680 0.174352 255 10 57 255
0.407226 2.317296 0.551272 0.084292 0.989654 0.115940 255 10 57 255
0.790414 2.269969 0.255564 0.165899 0.984649 0.053896 255 10 57 255
0.654221 2.317297 -0.208901 0.136357 0.989654 -0.044221 255 10 57 255
0.491409 2.270030 -0.664738 0.102573 0.984680 -0.140996 255 10 57 255
0.007579 2.317381 -0.678739 0.000092 0.989685 -0.143223 255 10 57 255
-0.476281 2.270127 -0.664766 -0.102359 0.984680 -0.140996 255 10 57 255
-0.639100 2.317432 -0.208913 -0.136143 0.989685 -0.044221 255 10 57 255
-0.775320 2.270125 0.255581 -0.337779 0.934782 0.109806 255 10 57 255
-0.848049 1.923507 1.178679 -0.356731 0.794671 0.491104 255 10 57 255
-1.191332 2.057782 0.390755 -0.499924 0.850673 0.162481 255 10 57 255
-1.558056 1.761546 0.509907 -0.644002 0.735801 0.209296 255 10 57 255
-1.590924 1.538496 0.940731 -0.520280 0.726432 0.448927 255 10 57 255
-1.558060 1.252914 1.332908 -0.581988 0.522904 0.622761 255 10 57 255
-1.191338 1.278826 1.651159 -0.499924 0.525803 0.688162 254 10 57 255
-0.775327 1.252887 1.901542 -0.412336 0.522874 0.745994 252 10 56 255
-0.392188 1.538442 1.811590 -0.266091 0.726402 0.633625 255 10 57 255
0.007375 1.761467 1.647185 0.000000 0.735771 0.677175 255 10 57 255
0.007376 2.057710 1.261623 0.000000 0.850642 0.525712 255 10 57 255
0.007375 2.270076 0.824224 0.000000 0.901059 0.433607 255 10 57 255
-0.392183 2.317379 0.551218 -0.266091 0.891598 0.366344 255 10 57 255
0.862793 1.923473 1.178658 0.356792 0.794641 0.491104 255 10 57 255
0.406935 1.538430 1.811576 0.266121 0.726402 0.633595 255 10 57 255
0.790064 1.252867 1.901513 0.412366 0.522874 0.745994 251 10 56 255
1.206061 1.278795 1.651121 0.499954 0.525773 0.688162 252 10 56 255
1.572762 1.252877 1.332869 0.582018 0.522874 0.622730 254 10 57 255
1.605625 1.538447 0.940702 0.520310 0.726402 0.448927 255 10 57 255
1.572758 1.761493 0.509892 0.644032 0.735801 0.209296 255 10 57 255
1.206055 2.057733 0.390747 0.499954 0.850642 0.162481 255 10 57 255
0.790058 2.270091 0.255578 0.412366 0.901089 0.134037 255 10 57 255
0.406932 2.317361 0.551214 0.266121 0.891598 0.366344 255 10 57 255
1.391524 1.923550 -0.448453 0.577288 0.794671 -0.187506 255 10 57 255
1.852603 1.538474 0.180688 0.684805 0.726432 -0.057253 255 10 57 255
2.056565 1.252919 -0.155912 0.836909 0.522904 -0.161596 255 10 57 255
1.946994 1.278863 -0.628949 0.808985 0.525803 -0.262764 255 10 57 255
1.757640 1.252952 -1.076083 0.772118 0.522904 -0.361034 255 10 57 255
1.394797 1.538539 -1.228529 0.587725 0.726463 -0.356059 255 10 57 255
0.974886 1.761588 -1.330399 0.398053 0.735832 -0.547777 255 10 57 255
0.748232 2.057820 -1.018429 0.309000 0.850673 -0.425214 255 10 57 255
0.491112 2.270152 -0.664540 0.254860 0.901120 -0.350719 255 10 57 255
0.653883 2.317402 -0.208791 0.430616 0.891598 -0.139836 255 10 57 255
0.007380 1.923633 -1.454156 0.000000 0.794702 -0.606952 255 10 57 255
0.748262 1.538568 -1.698306 0.157109 0.726463 -0.668966 255 10 57 255
0.491152 1.252997 -1.996326 0.104862 0.522935 -0.845882 255 10 57 255
0.007375 1.278935 -2.038280 0.000000 0.525834 -0.850551 255 10 57 255
-0.476408 1.253009 -1.996344 -0.104831 0.522935 -0.845882 255 10 57 255
-0.733522 1.538590 -1.698330 -0.157079 0.726463 -0.668966 255 10 57 255
-0.960157 1.761620 -1.330423 -0.398022 0.735832 -0.547777 255 10 57 255
-0.733491 2.057850 -1.018444 -0.308969 0.850703 -0.425214 255 10 57 255
-0.476368 2.270173 -0.664546 -0.254830 0.901120 -0.350719 255 10 57 255
0.007376 2.317446 -0.678519 0.000000 0.891629 -0.452712 255 10 57 255
-1.376805 1.923606 -0.448467 -0.577258 0.794702 -0.187506 255 10 57 255
-1.380083 1.538581 -1.228563 -0.587695 0.726463 -0.356090 255 10 57 255
-1.742950 1.252994 -1.076119 -0.667989 0.669240 -0.325388 255 10 57 255
-1.932317 1.278911 -0.628973 -0.704794 0.671407 -0.228950 255 10 57 255
-2.041897 1.252968 -0.155919 -0.731681 0.669240 -0.129276 255 10 57 255
-1.837919 1.538530 0.180694 -0.684805 0.726463 -0.057253 255 10 57 255
-0.639140 2.317432 -0.208794 -0.430586 0.891629 -0.139836 255 10 57 255
1.267933 1.090477 -1.733730 0.525742 0.447218 -0.723533 255 10 57 255
1.394942 0.438186 -1.908552 0.558000 0.314463 -0.767937 255 10 57 255
0.974892 0.429546 -2.153719 0.471877 0.314219 -0.823756 255 10 57 255
0.748184 0.858500 -2.118711 0.421735 0.402997 -0.812220 255 10 57 255
0.490996 1.252843 -1.996459 0.369396 0.488571 -0.790429 255 10 57 255
0.748192 1.538507 -1.698391 0.421705 0.546281 -0.723655 255 10 57 255
1.394896 1.538479 -1.228491 0.558000 0.546281 -0.624622 255 10 57 255
1.757813 1.252799 -1.075978 0.637684 0.488571 -0.595508 255 10 57 255
1.794620 0.858474 -1.358351 0.642201 0.402997 -0.651997 255 10 57 255
1.757868 0.429537 -1.584790 0.637684 0.314219 -0.703269 255 10 57 255
-1.253213 1.090505 -1.733773 -0.525712 0.447249 -0.723563 255 10 57 255
-1.380231 0.438198 -1.908602 -0.557970 0.314463 -0.767937 255 10 57 255
-1.743181 0.429550 -1.584841 -0.637654 0.314219 -0.703269 255 10 57 255
-1.779934 0.858503 -1.358396 -0.642201 0.403027 -0.652028 255 10 57 255
-1.743125 1.252840 -1.076012 -0.759941 0.425977 -0.490890 255 10 57 255
-1.380186 1.538519 -1.228522 -0.557970 0.546312 -0.624653 255 10 57 255
-0.733456 1.538529 -1.698414 -0.421674 0.546312 -0.723655 255 10 57 255
-0.476256 1.252855 -1.996476 -0.369366 0.488571 -0.790460 255 10 57 255
-0.733448 0.858512 -2.118741 -0.421674 0.403027 -0.812220 255 10 57 255
-0.960165 0.429554 -2.153757 -0.471847 0.314219 -0.823756 255 10 57 255
-2.032178 1.090442 0.663968 -0.850612 0.447218 0.276437 255 10 57 255
-2.237677 0.438171 0.730732 -0.902768 0.314432 0.293374 255 10 57 255
-2.041915 0.429522 1.175926 -0.865902 0.314188 0.389172 245 10 55 255
-1.837926 0.858444 1.280850 -0.818537 0.402997 0.409314 255 10 57 255
-1.558014 1.252760 1.333105 -0.763421 0.488540 0.422468 255 10 57 255
-1.590919 1.538435 0.940838 -0.766503 0.546281 0.337657 255 10 57 255
-1.837978 1.538469 0.180601 -0.818567 0.546281 0.177465 255 10 57 255
-2.041975 1.252813 -0.156107 -0.865902 0.488571 0.107059 255 10 57 255
-2.237705 0.858475 0.050711 -0.902768 0.402997 0.150121 255 10 57 255
-2.341046 0.429533 0.255497 -0.929258 0.314219 0.194250 255 10 57 255
0.007380 1.090375 2.145660 0.000000 0.447188 0.894406 249 10 56 255
0.007377 0.438145 2.361704 0.000000 0.314432 0.949248 161 7 36 255
0.491251 0.429499 2.313122 0.102481 0.314188 0.943785 156 7 35 255
0.654070 0.858404 2.151566 0.136265 0.402966 0.904996 189 8 42 255
0.790268 1.252713 1.901530 0.165807 0.488510 0.856624 251 10 56 255
0.407043 1.538368 1.811604 0.084231 0.546251 0.833338 255 10 57 255
-0.392291 1.538381 1.811619 -0.084170 0.546251 0.833369 255 10 57 255
-0.775528 1.252733 1.901559 -0.165777 0.488540 0.856624 252 10 56 255
-0.639324 0.858415 2.151594 -0.136235 0.402966 0.904996 195 8 44 255
-0.476504 0.429504 2.313144 -0.102420 0.314188 0.943785 161 7 36 255
2.046849 1.090397 0.663940 0.850612 0.447188 0.276437 255 10 57 255
2.252329 0.438153 0.730699 0.902799 0.314432 0.293374 216 8 49 255
2.252358 0.858438 0.050708 0.902799 0.402966 0.150090 255 10 57 255
2.056643 1.252764 -0.156102 0.865932 0.488540 0.107059 255 10 57 255
1.852662 1.538414 0.180595 0.818567 0.546251 0.177465 255 10 57 255
1.605620 1.538387 0.940808 0.766503 0.546251 0.337657 255 10 57 255
1.572716 1.252723 1.333065 0.763451 0.488540 0.422437 254 10 57 255
1.852610 0.858414 1.280804 0.818567 0.402966 0.409284 235 10 52 255
2.056583 0.429506 1.175879 0.865902 0.314188 0.389141 161 7 36 255
-1.376821 0.468201 1.906471 -0.577288 0.187689 0.794641 161 7 36 255
-1.837927 0.858725 1.280665 -0.684805 0.273659 0.675344 255 10 57 255
-2.041910 0.429939 1.175788 -0.731681 0.183660 0.656392 245 10 55 255
-1.932338 0.018426 1.410555 -0.704825 0.095492 0.702902 161 7 36 255
-1.742974 -0.393113 1.587352 -0.667989 0.008271 0.744102 161 7 36 255
-1.380104 -0.401744 1.910973 -0.587725 0.006378 0.809015 161 7 36 255
-0.960172 -0.393104 2.156027 -0.501175 0.008271 0.865291 161 7 36 255
-0.733503 0.018426 2.281461 -0.450606 0.095462 0.887570 161 7 36 255
-0.476375 0.429921 2.313097 -0.398053 0.183660 0.898770 161 7 36 255
-0.639147 0.858696 2.151537 -0.430586 0.273659 0.860042 195 8 44 255
1.391539 0.468187 1.906416 0.577319 0.187689 0.794641 161 7 36 255
0.653890 0.858685 2.151510 0.430616 0.273659 0.860012 189 8 42 255
0.491119 0.429916 2.313075 0.398083 0.183660 0.898740 156 7 35 255
0.748243 0.018426 2.281428 0.450636 0.095462 0.887570 107 4 24 255
0.974902 -0.393097 2.155987 0.501206 0.008271 0.865261 107 4 24 255
1.394817 -0.401733 1.910922 0.587756 0.006378 0.808985 107 4 24 255
1.757664 -0.393100 1.587299 0.668020 0.008271 0.744072 159 7 35 255
1.947015 0.018425 1.410502 0.704825 0.095492 0.702872 161 7 36 255
2.056578 0.429923 1.175743 0.731712 0.183660 0.656362 161 7 36 255
1.852611 0.858694 1.280619 0.684835 0.273659 0.675344 235 10 52 255
2.247147 0.468217 -0.726462 0.934172 0.187689 -0.303446 255 10 57 255
2.252249 0.858718 0.050862 0.951018 0.273659 -0.143712 255 10 57 255
2.355603 0.429931 0.255596 0.977783 0.183660 -0.100803 249 10 55 255
2.404981 0.018425 0.001272 0.983398 0.095492 -0.154241 222 9 49 255
2.355734 -0.393117 -0.253073 0.977813 0.008271 -0.209235 164 7 37 255
2.252445 -0.401759 -0.728195 0.951048 0.006378 -0.308939 232 10 51 255
2.056791 -0.393129 -1.173327 0.914121 0.008271 -0.405347 253 10 57 255
1.947161 0.018425 -1.408065 0.886319 0.095492 -0.453108 255 10 57 255
1.757736 0.429954 -1.584828 0.850368 0.183660 -0.493027 255 10 57 255
1.794444 0.858754 -1.358409 0.853908 0.273690 -0.442579 255 10 57 255
0.007380 0.468249 -2.353914 0.000000 0.187719 -0.982208 255 10 57 255
0.748297 0.858780 -2.118561 0.157140 0.273690 -0.948882 255 10 57 255
0.974971 0.429963 -2.153604 0.206214 0.183660 -0.961089 255 10 57 255
0.748334 0.018425 -2.279164 0.157140 0.095492 -0.982940 255 10 57 255
0.491199 -0.393147 -2.310917 0.103122 0.008271 -0.994629 255 10 57 255
0.007376 -0.401787 -2.359488 0.000000 0.006378 -0.999969 255 10 57 255
-0.476454 -0.393151 -2.310938 -0.103061 0.008271 -0.994629 255 10 57 255
-0.733594 0.018425 -2.279197 -0.157079 0.095492 -0.982940 255 10 57 255
-0.960241 0.429971 -2.153644 -0.206183 0.183660 -0.961089 255 10 57 255
-0.733557 0.858792 -2.118592 -0.157079 0.273690 -0.948882 255 10 57 255
-2.232583 0.468041 -0.726342 -0.934172 0.187628 -0.303385 255 10 57 255
-1.779922 0.858617 -1.358340 -0.853969 0.273598 -0.442518 255 10 57 255
-1.743198 0.429801 -1.584757 -0.850398 0.183599 -0.492996 255 10 57 255
-1.932597 0.018257 -1.407964 -0.886349 0.095431 -0.453047 255 10 57 255
-2.042191 -0.393291 -1.173204 -0.914121 0.008179 -0.405286 255 10 57 255
-2.237818 -0.401920 -0.728064 -0.951048 0.006317 -0.308878 255 10 57 255
-2.341082 -0.393271 -0.252951 -0.977813 0.008179 -0.209174 255 10 57 255
-2.390343 0.018257 0.001390 -0.983398 0.095401 -0.154180 255 10 57 255
-2.340983 0.429761 0.255709 -0.977813 0.183599 -0.100772 255 10 57 255
-2.237670 0.858553 0.050981 -0.951018 0.273598 -0.143681 255 10 57 255
-2.042019 1.252780 -0.155799 -0.914090 0.358989 -0.188452 255 10 57 255
-1.932470 1.278736 -0.628851 -0.886319 0.362712 -0.287851 255 10 57 255
3 0 1 2
3 0 3 4
3 0 5 6
3 0 7 8
3 0 9 10
3 11 12 13
3 11 14 15
3 11 16 17
3 11 18 19
3 11 20 21
3 11 22 10
3 23 20 19
3 23 24 25
3 23 26 27
3 23 28 29
3 23 30 31
3 23 32 21
3 33 30 29
3 33 34 35
3 33 36 37
3 33 38 39
3 33 40 41
3 33 42 31
3 43 40 39
3 43 44 45
3 43 46 47
3 43 48 49
3 43 50 51
3 43 52 41
3 53 50 49
3 53 54 55
3 53 56 57
3 53 58 13
3 53 12 10
3 53 59 51
3 60 61 62
3 60 63 64
3 60 65 39
3 60 66 67
3 60 68 69
3 70 71 72
3 70 73 74
3 70 75 49
3 70 76 77
3 70 78 79
3 80 81 82
3 80 83 84
3 80 85 13
3 80 86 87
3 80 88 89
3 90 91 92
3 90 93 94
3 90 95 19
3 90 96 97
3 90 98 99
3 100 101 102
3 100 103 104
3 100 105 29
3 100 106 107
3 100 108 109
3 110 111 112
3 110 113 114
3 110 115 116
3 110 117 118
3 110 119 17
3 110 16 15
3 120 121 122
3 120 123 124
3 120 125 126
3 120 127 128
3 120 129 27
3 120 26 25
3 130 131 132
3 130 133 134
3 130 135 136
3 130 137 138
3 130 139 37
3 130 36 35
3 140 141 142
3 140 143 144
3 140 145 146
3 140 147 148
3 140 149 47
3 140 46 45
3 150 151 152
3 150 153 154
3 150 155 156
3 150 157 158
3 150 159 160
3 150 161 74
3 162 163 164
3 162 165 166
3 162 167 168
3 162 169 170
3 162 171 172
3 173 174 175
3 173 176 177
3 173 178 179
3 173 180 181
3 173 182 183
3 173 184 172
3 185 182 181
3 185 186 187
3 185 188 189
3 185 190 191
3 185 192 193
3 185 194 183
3 195 192 191
3 195 196 197
3 195 198 199
3 195 200 201
3 195 202 203
3 195 204 193
3 205 202 201
3 205 206 207
3 205 208 209
3 205 210 211
3 205 212 213
3 205 214 203
3 215 212 211
3 215 216 217
3 215 218 219
3 215 220 175
3 215 174 172
3 215 221 213
3 222 223 224
3 222 225 226
3 222 227 201
3 222 228 229
3 222 230 231
3 232 233 234
3 232 235 236
3 232 237 211
3 232 238 239
3 232 240 241
3 242 243 244
3 242 245 246
3 242 247 175
3 242 248 249
3 242 250 251
3 252 253 254
3 252 255 256
3 252 257 181
3 252 258 259
3 252 260 261
3 262 263 154
3 262 264 265
3 262 266 191
3 262 267 268
3 262 269 270
3 271 272 273
3 271 274 275
3 271 276 277
3 271 278 279
3 271 280 179
3 271 178 177
3 281 282 283
3 281 284 285
3 281 286 287
3 281 288 289
3 281 290 189
3 281 188 187
3 291 292 293
3 291 294 295
3 291 296 297
3 291 298 299
3 291 300 199
3 291 198 197
3 301 302 303
3 301 304 305
3 301 306 307
3 301 308 309
3 301 310 209
3 301 208 207
3 311 312 313
3 311 314 315
3 311 316 317
3 311 318 319
3 311 320 321
3 311 322 236
3 3 0 2
3 5 0 4
3 7 0 6
3 9 0 8
3 1 0 10
3 14 11 13
3 16 11 15
3 18 11 17
3 20 11 19
3 22 11 21
3 12 11 10
3 24 23 19
3 26 23 25
3 28 23 27
3 30 23 29
3 32 23 31
3 20 23 21
3 34 33 29
3 36 33 35
3 38 33 37
3 40 33 39
3 42 33 41
3 30 33 31
3 44 43 39
3 46 43 45
3 48 43 47
3 50 43 49
3 52 43 51
3 40 43 41
3 54 53 49
3 56 53 55
3 58 53 57
3 12 53 13
3 59 53 10
3 50 53 51
3 63 60 62
3 65 60 64
3 66 60 39
3 68 60 67
3 61 60 69
3 73 70 72
3 75 70 74
3 76 70 49
3 78 70 77
3 71 70 79
3 83 80 82
3 85 80 84
3 86 80 13
3 88 80 87
3 81 80 89
3 93 90 92
3 95 90 94
3 96 90 19
3 98 90 97
3 91 90 99
3 103 100 102
3 105 100 104
3 106 100 29
3 108 100 107
3 101 100 109
3 113 110 112
3 115 110 114
3 117 110 116
3 119 110 118
3 16 110 17
3 111 110 15
3 123 120 122
3 125 120 124
3 127 120 126
3 129 120 128
3 26 120 27
3 121 120 25
3 133 130 132
3 135 130 134
3 137 130 136
3 139 130 138
3 36 130 37
3 131 130 35
3 143 140 142
3 145 140 144
3 147 140 146
3 149 140 148
3 46 140 47
3 141 140 45
3 153 150 152
3 155 150 154
3 157 150 156
3 159 150 158
3 161 150 160
3 151 150 74
3 165 162 164
3 167 162 166
3 169 162 168
3 171 162 170
3 163 162 172
3 176 173 175
3 178 173 177
3 180 173 179
3 182 173 181
3 184 173 183
3 174 173 172
3 186 185 181
3 188 185 187
3 190 185 189
3 192 185 191
3 194 185 193
3 182 185 183
3 196 195 191
3 198 195 197
3 200 195 199
3 202 195 201
3 204 195 203
3 192 195 193
3 206 205 201
3 208 205 207
3 210 205 209
3 212 205 211
3 214 205 213
3 202 205 203
3 216 215 211
3 218 215 217
3 220 215 219
3 174 215 175
3 221 215 172
3 212 215 213
3 225 222 224
3 227 222 226
3 228 222 201
3 230 222 229
3 223 222 231
3 235 232 234
3 237 232 236
3 238 232 211
3 240 232 239
3 233 232 241
3 245 242 244
3 247 242 246
3 248 242 175
3 250 242 249
3 243 242 251
3 255 252 254
3 257 252 256
3 258 252 181
3 260 252 259
3 253 252 261
3 264 262 154
3 266 262 265
3 267 262 191
3 269 262 268
3 263 262 270
3 274 271 273
3 276 271 275
3 278 271 277
3 280 271 279
3 178 271 179
3 272 271 177
3 284 281 283
3 286 281 285
3 288 281 287
3 290 281 289
3 188 281 189
3 282 281 187
3 294 291 293
3 296 291 295
3 298 291 297
3 300 291 299
3 198 291 199
3 292 291 197
3 304 301 303
3 306 301 305
3 308 301 307
3 310 301 309
3 208 301 209
3 302 301 207
3 314 311 313
3 316 311 315
3 318 311 317
3 320 311 319
3 322 311 321
3 312 311 236
