ply
format ascii 1.0
comment VCGLIB generated
element vertex 208
property float x
property float y
property float z
property float nx
property float ny
property float nz
property uchar red
property uchar green
property uchar blue
property uchar alpha
property float texture_u
property float texture_v
element face 100
property list uchar int vertex_indices
end_header
-0.077891 0.004269 -0.075075 0 -1 0 171 171 171 255 0.321815 0.284786
0.022109 0.004269 0.024925 0 -1 0 171 171 171 255 0.374010 0.232591
-0.077891 0.004269 0.024925 0 -1 0 171 171 171 255 0.374010 0.284786
-0.073081 0.592161 0.021709 -0.999967 0.008181 -0 171 171 171 255 0.055853 0.917879
-0.077891 0.004269 -0.075075 -0.999967 0.008181 -0 171 171 171 255 0.285850 0.975401
-0.077891 0.004269 0.024925 -0.999967 0.008181 -0 171 171 171 255 0.055853 0.975908
-0.073081 0.592161 -0.071859 0 0.00547 -0.999985 171 171 171 255 0.282435 0.917591
0.022109 0.004269 -0.075075 0 0.00547 -0.999985 171 171 171 255 0.495548 0.973268
-0.077891 0.004269 -0.075075 0 0.00547 -0.999985 171 171 171 255 0.285850 0.975401
0.017299 0.616378 -0.071859 0.999969 0.007858 -0 171 171 171 255 0.503314 0.916382
0.022109 0.004269 0.024925 0.999969 0.007858 -0 171 171 171 255 0.667539 0.974892
0.022109 0.004269 -0.075075 0.999969 0.007858 -0 171 171 171 255 0.495548 0.973268
-0.073081 0.592161 0.021709 -0.001405 0.005243 0.999985 171 171 171 255 0.897505 0.917879
0.022109 0.004269 0.024925 -0.001405 0.005243 0.999985 171 171 171 255 0.667539 0.974892
0.017299 0.616378 0.021709 -0.001405 0.005243 0.999985 171 171 171 255 0.662706 0.917302
-0.073081 0.592161 0.021709 0.14397 -0.005934 0.989564 171 171 171 255 0.897505 0.917879
-0.041073 0.951652 0.019208 0.14397 -0.005934 0.989564 171 171 171 255 0.657173 0.851375
-0.117817 0.971605 0.030493 0.14397 -0.005934 0.989564 171 171 171 255 0.897505 0.851448
0.017299 0.616378 -0.071859 0.98518 0.171522 0 171 171 171 255 0.503314 0.916382
-0.041073 0.951652 0.019208 0.98518 0.171522 0 171 171 171 255 0.657173 0.851375
0.017299 0.616378 0.021709 0.98518 0.171522 0 171 171 171 255 0.662706 0.917302
-0.073081 0.592161 -0.071859 -0.008944 0.03338 -0.999403 171 171 171 255 0.282435 0.917591
-0.052725 0.951652 -0.060034 -0.008944 0.03338 -0.999403 171 171 171 255 0.512204 0.851259
0.017299 0.616378 -0.071859 -0.008944 0.03338 -0.999403 171 171 171 255 0.503314 0.916382
-0.073081 0.592161 0.021709 -0.989138 -0.146993 0 171 171 171 255 0.055853 0.917879
-0.129469 0.971605 -0.04875 -0.989138 -0.146993 0 171 171 171 255 0.278524 0.851412
-0.073081 0.592161 -0.071859 -0.989138 -0.146993 0 171 171 171 255 0.282435 0.917591
-0.129469 0.971605 -0.04875 -0.997149 0.075463 1e-06 171 171 171 255 0.278524 0.851412
-0.09083 1.482172 0.019773 -0.997149 0.075463 1e-06 171 171 171 255 0.055853 0.782265
-0.09083 1.482173 -0.080227 -0.997149 0.075463 1e-06 171 171 171 255 0.274452 0.782490
-0.052725 0.951652 -0.060034 0.009391 -0.03736 -0.999258 171 171 171 255 0.512204 0.851259
-0.09083 1.482173 -0.080227 0.009391 -0.03736 -0.999258 171 171 171 255 0.274452 0.782490
0.006153 1.506551 -0.080227 0.009391 -0.03736 -0.999258 171 171 171 255 0.521463 0.783438
-0.052725 0.951652 -0.060034 0.985885 -0.083758 -0.144968 171 171 171 255 0.512204 0.851259
0.006153 1.506551 0.019773 0.985885 -0.083758 -0.144968 171 171 171 255 0.651412 0.782716
-0.041073 0.951652 0.019208 0.985885 -0.083758 -0.144968 171 171 171 255 0.657173 0.851375
-0.041073 0.951652 0.019208 0.148752 0.012898 0.98879 171 171 171 255 0.657173 0.851375
-0.09083 1.482172 0.019773 0.148752 0.012898 0.98879 171 171 171 255 0.897505 0.782265
-0.117817 0.971605 0.030493 0.148752 0.012898 0.98879 171 171 171 255 0.897505 0.851448
0.006153 1.506551 0.019773 -0 0 1 171 171 171 255 0.651412 0.782716
-0.093271 2.571856 0.019773 -0 0 1 171 171 171 255 0.897505 0.707785
-0.09083 1.482172 0.019773 -0 0 1 171 171 171 255 0.897505 0.782265
0.006153 1.506551 -0.080227 1 -0.00054 0 171 171 171 255 0.521463 0.783438
0.006728 2.572263 0.019773 1 -0.00054 0 171 171 171 255 0.645209 0.708801
0.006153 1.506551 0.019773 1 -0.00054 0 171 171 171 255 0.651412 0.782716
0.006153 1.506551 -0.080227 0 -0 -1 171 171 171 255 0.521463 0.783438
-0.093271 2.547726 -0.080227 0 -0 -1 171 171 171 255 0.270068 0.708291
0.006728 2.572263 -0.080227 0 -0 -1 171 171 171 255 0.531430 0.710424
-0.09083 1.482172 0.019773 -0.999997 -0.002291 -0 171 171 171 255 0.055853 0.782265
-0.093271 2.547726 -0.080227 -0.999997 -0.002291 -0 171 171 171 255 0.270068 0.708291
-0.09083 1.482173 -0.080227 -0.999997 -0.002291 -0 171 171 171 255 0.274452 0.782490
-0.093271 2.571856 0.019773 -0.232018 0.945572 -0.228168 171 171 171 255 0.224634 0.232606
0.006728 2.572263 -0.080227 -0.232018 0.945572 -0.228168 171 171 171 255 0.276828 0.284770
-0.093271 2.547726 -0.080227 -0.232018 0.945572 -0.228168 171 171 171 255 0.224633 0.284801
0.794218 1.578843 -0.130792 0.996947 0.078084 -2e-05 171 171 171 255 0.199253 0.127811
0.783335 1.717806 -0.081058 0.996947 0.078084 -2e-05 171 171 171 255 0.206557 0.143624
0.794219 1.578843 -0.081058 0.996947 0.078084 -2e-05 171 171 171 255 0.199253 0.143624
-0.778308 2.474722 -0.081058 0.223966 0.974597 5e-06 171 171 171 255 0.554940 0.143624
-0.905781 2.504016 -0.130792 0.223966 0.974597 5e-06 171 171 171 255 0.607692 0.127811
-0.905782 2.504016 -0.081058 0.223966 0.974597 5e-06 171 171 171 255 0.607692 0.143624
-0.905781 1.67136 -0.130792 -0 -0 -1 171 171 171 255 0.960127 0.212494
-0.735781 1.67136 -0.130792 -0 -0 -1 171 171 171 255 0.907797 0.212494
-0.735781 1.578843 -0.130792 -0 -0 -1 171 171 171 255 0.907797 0.197497
-0.905781 1.67136 -0.081058 0 0 1 171 171 171 255 0.956128 0.422325
-0.735781 1.578842 -0.081058 0 0 1 171 171 171 255 0.903798 0.407854
-0.735781 1.67136 -0.081058 0 0 1 171 171 171 255 0.903798 0.422325
-0.735781 1.578843 -0.130792 -0.478015 -0.878352 0 171 171 171 255 0.712570 0.127811
-0.905781 1.67136 -0.081058 -0.478015 -0.878352 0 171 171 171 255 0.642138 0.143624
-0.905781 1.67136 -0.130792 -0.478015 -0.878352 0 171 171 171 255 0.642138 0.127811
-0.905781 2.379117 -0.130792 -1 -0 -2e-05 171 171 171 255 0.612859 0.127811
-0.905782 2.504016 -0.081058 -1 -0 -2e-05 171 171 171 255 0.607692 0.143624
-0.905781 2.504016 -0.130792 -1 -0 -2e-05 171 171 171 255 0.607692 0.127811
-0.905781 1.67136 -0.130792 -1 -0 0 171 171 171 255 0.642138 0.127811
-0.905781 2.379117 -0.081058 -1 -0 0 171 171 171 255 0.612859 0.143624
-0.905781 2.379117 -0.130792 -1 -0 0 171 171 171 255 0.612859 0.127811
0.794218 2.379118 -0.130792 0.999977 -0.006796 0 171 171 171 255 0.318143 0.127811
0.790118 1.775844 -0.081058 0.999977 -0.006796 0 171 171 171 255 0.293122 0.143624
0.790118 1.775844 -0.130792 0.999977 -0.006796 0 171 171 171 255 0.293122 0.127811
0.794218 2.379118 -0.130792 1 0 0 171 171 171 255 0.318143 0.127811
0.794218 2.543204 -0.081058 1 0 0 171 171 171 255 0.324932 0.143624
0.794218 2.379118 -0.081058 1 0 0 171 171 171 255 0.318143 0.143624
-0.778308 2.474722 -0.130792 -0 -0 -1 171 171 171 255 0.927521 0.333116
-0.905781 2.379117 -0.130792 -0 -0 -1 171 171 171 255 0.960127 0.307161
-0.905781 2.504016 -0.130792 -0 -0 -1 171 171 171 255 0.960127 0.344255
-0.735781 2.379117 -0.130792 -0 -0 -1 171 171 171 255 0.907797 0.307161
-0.735781 2.379117 -0.081058 0 0 1 171 171 171 255 0.903798 0.520885
-0.778308 2.474722 -0.081058 0 0 1 171 171 171 255 0.923522 0.548366
-0.905781 2.379117 -0.081058 0 0 1 171 171 171 255 0.956128 0.520885
0.682188 1.578843 -0.130792 0 -1 -1.9e-05 171 171 171 255 0.870105 0.127811
-0.735781 1.578842 -0.081058 0 -1 -1.9e-05 171 171 171 255 0.712570 0.143624
-0.735781 1.578843 -0.130792 0 -1 -1.9e-05 171 171 171 255 0.712570 0.127811
0.794218 1.578843 -0.130792 0 -1 0 171 171 171 255 0.199253 0.127811
0.682189 1.578843 -0.081058 0 -1 0 171 171 171 255 0.152895 0.143624
0.682188 1.578843 -0.130792 0 -1 0 171 171 171 255 0.152895 0.127811
0.683402 2.543126 -0.130792 -0.000712 1 1.9e-05 171 171 171 255 0.370785 0.127811
0.794218 2.543204 -0.081058 -0.000712 1 1.9e-05 171 171 171 255 0.324932 0.143624
0.794218 2.543205 -0.130792 -0.000712 1 1.9e-05 171 171 171 255 0.324932 0.127811
-0.719201 2.502937 -0.130792 -0.028641 0.99959 2.4e-05 171 171 171 255 0.528344 0.127811
0.683402 2.543125 -0.081058 -0.028641 0.99959 2.4e-05 171 171 171 255 0.370785 0.143624
0.683402 2.543126 -0.130792 -0.028641 0.99959 2.4e-05 171 171 171 255 0.370785 0.127811
0.682188 1.578843 -0.130792 0 -0 -1 171 171 171 255 0.634602 0.197497
0.783335 1.717806 -0.130792 0 -0 -1 171 171 171 255 0.609793 0.221031
0.794218 1.578843 -0.130792 0 -0 -1 171 171 171 255 0.609793 0.197497
0.682188 1.767094 -0.130792 0 -0 -1 171 171 171 255 0.634602 0.235531
0.783335 1.717806 -0.081058 0 0 1 171 171 171 255 0.607381 0.430071
0.682189 1.578843 -0.081058 0 0 1 171 171 171 255 0.630604 0.407854
0.794219 1.578843 -0.081058 0 0 1 171 171 171 255 0.607381 0.407854
0.682189 1.767094 -0.081058 -0 0 1 171 171 171 255 0.630604 0.446255
0.794218 2.379118 -0.130792 0 -0 -1 171 171 171 255 0.609793 0.307161
0.683402 2.543126 -0.130792 0 -0 -1 171 171 171 255 0.634576 0.334309
0.794218 2.543205 -0.130792 0 -0 -1 171 171 171 255 0.609819 0.334309
0.682188 2.379118 -0.130792 -0 -0 -1 171 171 171 255 0.634602 0.307161
-0.719201 2.502937 -0.130792 -0 -0 -1 171 171 171 255 0.900235 0.328936
0.790118 1.775844 -0.130792 -0 -0 -1 171 171 171 255 0.609793 0.237774
0.682188 2.379118 -0.081058 0 0 1 171 171 171 255 0.630604 0.520885
0.790118 1.775844 -0.081058 0 0 1 171 171 171 255 0.607381 0.455684
0.794218 2.379118 -0.081058 0 0 1 171 171 171 255 0.607381 0.520885
0.683402 2.543125 -0.081058 -0 0 1 171 171 171 255 0.630604 0.554611
0.794218 2.543204 -0.081058 -0 0 1 171 171 171 255 0.607381 0.554611
-0.719201 2.502937 -0.081058 0 0 1 171 171 171 255 0.896236 0.547482
-0.719201 2.502937 -0.130792 -0.991154 0.132719 0 171 171 171 255 0.528344 0.127811
-0.735781 2.379117 -0.081058 -0.991154 0.132719 0 171 171 171 255 0.536906 0.143624
-0.719201 2.502937 -0.081058 -0.991154 0.132719 0 171 171 171 255 0.528344 0.143624
-0.735781 2.379117 -0.130792 0.913684 0.406425 0 171 171 171 255 0.536906 0.127811
-0.778308 2.474722 -0.081058 0.913684 0.406425 0 171 171 171 255 0.554940 0.143624
-0.735781 2.379117 -0.081058 0.913684 0.406425 0 171 171 171 255 0.536906 0.143624
0.790118 1.775844 -0.130792 0.080806 -0.99673 -2e-06 171 171 171 255 0.293122 0.127811
0.682189 1.767094 -0.081058 0.080806 -0.99673 -2e-06 171 171 171 255 0.248460 0.143624
0.682188 1.767094 -0.130792 0.080806 -0.99673 -2e-06 171 171 171 255 0.248460 0.127811
0.783335 1.717806 -0.130792 0.438054 0.898949 0 171 171 171 255 0.206557 0.127811
0.682189 1.767094 -0.081058 0.438054 0.898949 0 171 171 171 255 0.248460 0.143624
0.783335 1.717806 -0.081058 0.438054 0.898949 0 171 171 171 255 0.206557 0.143624
0.022109 0.004269 -0.075075 0 -1 0 171 171 171 255 0.321815 0.232591
-0.073081 0.592161 -0.071859 -0.999967 0.008181 0 171 171 171 255 0.282435 0.917591
-0.073081 0.592161 -0.071859 -0.001405 0.005243 -0.999985 171 171 171 255 0.282435 0.917591
0.017299 0.616378 -0.071859 -0.001405 0.005243 -0.999985 171 171 171 255 0.503314 0.916382
0.022109 0.004269 -0.075075 -0.001405 0.005243 -0.999985 171 171 171 255 0.495548 0.973268
0.017299 0.616378 0.021709 0.999969 0.007858 0 171 171 171 255 0.662706 0.917302
-0.073081 0.592161 0.021709 0 0.00547 0.999985 171 171 171 255 0.897505 0.917879
-0.077891 0.004269 0.024925 0 0.00547 0.999985 171 171 171 255 0.897505 0.975908
0.022109 0.004269 0.024925 0 0.00547 0.999985 171 171 171 255 0.667539 0.974892
-0.073081 0.592161 0.021709 -0.00191 0.007127 0.999973 171 171 171 255 0.897505 0.917879
0.017299 0.616378 0.021709 -0.00191 0.007127 0.999973 171 171 171 255 0.662706 0.917302
-0.041073 0.951652 0.019208 -0.00191 0.007127 0.999973 171 171 171 255 0.657173 0.851375
0.017299 0.616378 -0.071859 0.967897 0.207171 -0.142323 171 171 171 255 0.503314 0.916382
-0.052725 0.951652 -0.060034 0.967897 0.207171 -0.142323 171 171 171 255 0.512204 0.851259
-0.041073 0.951652 0.019208 0.967897 0.207171 -0.142323 171 171 171 255 0.657173 0.851375
-0.073081 0.592161 -0.071859 -0.13511 0.040216 -0.990014 171 171 171 255 0.282435 0.917591
-0.129469 0.971605 -0.04875 -0.13511 0.040216 -0.990014 171 171 171 255 0.278524 0.851412
-0.052725 0.951652 -0.060034 -0.13511 0.040216 -0.990014 171 171 171 255 0.512204 0.851259
-0.073081 0.592161 0.021709 -0.982313 -0.119157 0.144441 171 171 171 255 0.055853 0.917879
-0.117817 0.971605 0.030493 -0.982313 -0.119157 0.144441 171 171 171 255 0.055853 0.851448
-0.129469 0.971605 -0.04875 -0.982313 -0.119157 0.144441 171 171 171 255 0.278524 0.851412
-0.129469 0.971605 -0.04875 -0.98785 0.055265 0.145255 171 171 171 255 0.278524 0.851412
-0.117817 0.971605 0.030493 -0.98785 0.055265 0.145255 171 171 171 255 0.055853 0.851448
-0.09083 1.482172 0.019773 -0.98785 0.055265 0.145255 171 171 171 255 0.055853 0.782265
-0.052725 0.951652 -0.060034 -0.157722 -0.048869 -0.986274 171 171 171 255 0.512204 0.851259
-0.129469 0.971605 -0.04875 -0.157722 -0.048869 -0.986274 171 171 171 255 0.278524 0.851412
-0.09083 1.482173 -0.080227 -0.157722 -0.048869 -0.986274 171 171 171 255 0.274452 0.782490
-0.052725 0.951652 -0.060034 0.994418 -0.105513 0 171 171 171 255 0.512204 0.851259
0.006153 1.506551 -0.080227 0.994418 -0.105513 0 171 171 171 255 0.521463 0.783438
0.006153 1.506551 0.019773 0.994418 -0.105513 0 171 171 171 255 0.651412 0.782716
-0.041073 0.951652 0.019208 0.000262 -0.00104 0.999999 171 171 171 255 0.657173 0.851375
0.006153 1.506551 0.019773 0.000262 -0.00104 0.999999 171 171 171 255 0.651412 0.782716
-0.09083 1.482172 0.019773 0.000262 -0.00104 0.999999 171 171 171 255 0.897505 0.782265
0.006728 2.572263 0.019773 -0 0 1 171 171 171 255 0.645209 0.708801
0.006728 2.572263 -0.080227 1 -0.00054 0 171 171 171 255 0.531430 0.710424
-0.09083 1.482173 -0.080227 -0 -0 -1 171 171 171 255 0.274452 0.782490
-0.09083 1.482172 0.019773 -0.999997 -0.00224 0.000541 171 171 171 255 0.055853 0.782265
-0.093271 2.571856 0.019773 -0.999997 -0.00224 0.000541 171 171 171 255 0.055853 0.707785
-0.093271 2.547726 -0.080227 -0.999997 -0.00224 0.000541 171 171 171 255 0.270068 0.708291
-0.093271 2.571856 0.019773 -0.00407 0.999992 0 171 171 171 255 0.224634 0.232606
0.006728 2.572263 0.019773 -0.00407 0.999992 0 171 171 171 255 0.276813 0.232591
0.006728 2.572263 -0.080227 -0.00407 0.999992 0 171 171 171 255 0.276828 0.284770
0.794218 1.578843 -0.130792 0.996947 0.078077 0 171 171 171 255 0.199253 0.127811
0.783335 1.717806 -0.130792 0.996947 0.078077 0 171 171 171 255 0.206557 0.127811
0.783335 1.717806 -0.081058 0.996947 0.078077 0 171 171 171 255 0.206557 0.143624
-0.778308 2.474722 -0.081058 0.223968 0.974597 -0 171 171 171 255 0.554940 0.143624
-0.778308 2.474722 -0.130792 0.223968 0.974597 -0 171 171 171 255 0.554940 0.127811
-0.905781 2.504016 -0.130792 0.223968 0.974597 -0 171 171 171 255 0.607692 0.127811
-0.735781 1.578843 -0.130792 -0.478019 -0.87835 -1.7e-05 171 171 171 255 0.712570 0.127811
-0.735781 1.578842 -0.081058 -0.478019 -0.87835 -1.7e-05 171 171 171 255 0.712570 0.143624
-0.905781 1.67136 -0.081058 -0.478019 -0.87835 -1.7e-05 171 171 171 255 0.642138 0.143624
-0.905781 2.379117 -0.130792 -1 -8e-06 -0 171 171 171 255 0.612859 0.127811
-0.905781 2.379117 -0.081058 -1 -8e-06 -0 171 171 171 255 0.612859 0.143624
-0.905782 2.504016 -0.081058 -1 -8e-06 -0 171 171 171 255 0.607692 0.143624
-0.905781 1.67136 -0.081058 -1 -0 -0 171 171 171 255 0.642138 0.143624
0.794218 2.379118 -0.081058 0.999977 -0.006796 0 171 171 171 255 0.318143 0.143624
0.794218 2.543205 -0.130792 1 0 0 171 171 171 255 0.324932 0.127811
-0.905782 2.504016 -0.081058 -0 0 1 171 171 171 255 0.956128 0.557861
0.682188 1.578843 -0.130792 1e-06 -1 -0 171 171 171 255 0.870105 0.127811
0.682189 1.578843 -0.081058 1e-06 -1 -0 171 171 171 255 0.870105 0.143624
-0.735781 1.578842 -0.081058 1e-06 -1 -0 171 171 171 255 0.712570 0.143624
0.794219 1.578843 -0.081058 0 -1 -0 171 171 171 255 0.199253 0.143624
0.683402 2.543126 -0.130792 -0.000714 1 2.4e-05 171 171 171 255 0.370785 0.127811
0.683402 2.543125 -0.081058 -0.000714 1 2.4e-05 171 171 171 255 0.370785 0.143624
0.794218 2.543204 -0.081058 -0.000714 1 2.4e-05 171 171 171 255 0.324932 0.143624
-0.719201 2.502937 -0.130792 -0.028641 0.99959 0 171 171 171 255 0.528344 0.127811
-0.719201 2.502937 -0.081058 -0.028641 0.99959 0 171 171 171 255 0.528344 0.143624
0.683402 2.543125 -0.081058 -0.028641 0.99959 0 171 171 171 255 0.370785 0.143624
-0.735781 2.379117 -0.130792 -0.991154 0.132719 0 171 171 171 255 0.536906 0.127811
-0.778308 2.474722 -0.130792 0.913684 0.406425 0 171 171 171 255 0.554940 0.127811
0.790118 1.775844 -0.130792 0.080806 -0.99673 0 171 171 171 255 0.293122 0.127811
0.790118 1.775844 -0.081058 0.080806 -0.99673 0 171 171 171 255 0.293122 0.143624
0.682189 1.767094 -0.081058 0.080806 -0.99673 0 171 171 171 255 0.248460 0.143624
0.783335 1.717806 -0.130792 0.438051 0.89895 -9e-06 171 171 171 255 0.206557 0.127811
0.682188 1.767094 -0.130792 0.438051 0.89895 -9e-06 171 171 171 255 0.248460 0.127811
0.682189 1.767094 -0.081058 0.438051 0.89895 -9e-06 171 171 171 255 0.248460 0.143624
3 0 1 2 
3 3 4 5 
3 6 7 8 
3 9 10 11 
3 12 13 14 
3 15 16 17 
3 18 19 20 
3 21 22 23 
3 24 25 26 
3 27 28 29 
3 30 31 32 
3 33 34 35 
3 36 37 38 
3 39 40 41 
3 42 43 44 
3 45 46 47 
3 48 49 50 
3 51 52 53 
3 54 55 56 
3 57 58 59 
3 60 61 62 
3 63 64 65 
3 66 67 68 
3 69 70 71 
3 72 73 74 
3 75 76 77 
3 78 79 80 
3 81 82 83 
3 61 82 84 
3 85 63 65 
3 86 87 85 
3 88 89 90 
3 91 92 93 
3 94 95 96 
3 97 98 99 
3 100 101 102 
3 100 61 103 
3 104 105 106 
3 65 105 107 
3 108 109 110 
3 111 112 109 
3 113 111 108 
3 103 84 111 
3 114 115 116 
3 85 107 114 
3 117 116 118 
3 119 114 117 
3 120 121 122 
3 123 124 125 
3 126 127 128 
3 129 130 131 
3 0 132 1 
3 3 133 4 
3 134 135 136 
3 9 137 10 
3 138 139 140 
3 141 142 143 
3 144 145 146 
3 147 148 149 
3 150 151 152 
3 153 154 155 
3 156 157 158 
3 159 160 161 
3 162 163 164 
3 39 165 40 
3 42 166 43 
3 45 167 46 
3 168 169 170 
3 171 172 173 
3 174 175 176 
3 177 178 179 
3 180 181 182 
3 183 184 185 
3 72 186 73 
3 75 187 76 
3 78 188 79 
3 81 84 82 
3 61 60 82 
3 85 87 63 
3 86 189 87 
3 190 191 192 
3 91 193 92 
3 194 195 196 
3 197 198 199 
3 100 103 101 
3 100 62 61 
3 104 107 105 
3 65 64 105 
3 108 111 109 
3 111 84 112 
3 113 103 111 
3 103 61 84 
3 114 107 115 
3 85 65 107 
3 117 114 116 
3 119 85 114 
3 120 200 121 
3 123 201 124 
3 202 203 204 
3 205 206 207 
