ply
format ascii 1.0
comment Created by Blender 2.82 (sub 7) - www.blender.org, source file: ''
element vertex 230
property float x
property float y
property float z
property float nx
property float ny
property float nz
property uchar red
property uchar green
property uchar blue
property uchar alpha
element face 124
property list uchar uint vertex_indices
end_header
-0.016373 -0.782264 3.902086 -0.093393 -0.995629 0.000000 153 162 163 255
-0.176615 -0.767233 -0.784953 -0.093393 -0.995629 0.000000 153 162 163 255
-0.016372 -0.782264 -0.784953 -0.093393 -0.995629 0.000000 153 162 163 255
-0.176616 -0.767232 3.902086 -0.277546 -0.960712 0.000000 153 162 163 255
-0.330700 -0.722718 -0.784953 -0.277546 -0.960712 0.000000 153 162 163 255
-0.176615 -0.767233 -0.784953 -0.277546 -0.960712 0.000000 153 162 163 255
-0.330701 -0.722718 3.902086 -0.453663 -0.891173 -0.000000 153 162 163 255
-0.472704 -0.650429 -0.784953 -0.453663 -0.891173 -0.000000 153 162 163 255
-0.330700 -0.722718 -0.784953 -0.453663 -0.891173 -0.000000 153 162 163 255
-0.472705 -0.650429 3.902086 -0.615816 -0.787890 -0.000000 153 162 163 255
-0.597173 -0.553144 -0.784953 -0.615816 -0.787890 -0.000000 153 162 163 255
-0.472704 -0.650429 -0.784953 -0.615816 -0.787890 -0.000000 153 162 163 255
-0.597174 -0.553144 3.902086 -0.757542 -0.652786 -0.000000 153 162 163 255
-0.699322 -0.434602 -0.784953 -0.757542 -0.652786 -0.000000 153 162 163 255
-0.597173 -0.553144 -0.784953 -0.757542 -0.652786 -0.000000 153 162 163 255
-0.699323 -0.434602 3.902086 -0.872047 -0.489423 -0.000000 153 162 163 255
-0.775225 -0.299360 -0.784953 -0.872047 -0.489423 -0.000000 152 161 162 255
-0.699322 -0.434602 -0.784953 -0.872047 -0.489423 -0.000000 153 162 163 255
-0.775226 -0.299359 3.902086 -0.952833 -0.303494 -0.000000 153 162 163 255
-0.821967 -0.152612 -0.784953 -0.952833 -0.303494 -0.000000 48 51 51 255
-0.775225 -0.299360 -0.784953 -0.952833 -0.303494 -0.000000 152 161 162 255
-0.821968 -0.152612 3.902086 -0.994695 -0.102865 -0.000000 153 162 163 255
-0.837749 -0.000000 -0.784953 -0.994695 -0.102865 -0.000000 48 51 51 255
-0.821967 -0.152612 -0.784953 -0.994695 -0.102865 -0.000000 48 51 51 255
-0.837750 0.000000 3.902086 -0.994695 0.102865 -0.000000 153 162 163 255
-0.821967 0.152612 -0.784953 -0.994695 0.102865 -0.000000 48 51 51 255
-0.837749 -0.000000 -0.784953 -0.994695 0.102865 -0.000000 48 51 51 255
-0.821968 0.152612 3.902086 -0.952833 0.303494 -0.000000 153 162 163 255
-0.775225 0.299359 -0.784953 -0.952833 0.303494 -0.000000 48 51 51 255
-0.821967 0.152612 -0.784953 -0.952833 0.303494 -0.000000 48 51 51 255
-0.775226 0.299360 3.902086 -0.872047 0.489423 -0.000000 153 162 163 255
-0.699322 0.434602 -0.784953 -0.872047 0.489423 -0.000000 48 51 51 255
-0.775225 0.299359 -0.784953 -0.872047 0.489423 -0.000000 48 51 51 255
-0.699323 0.434602 3.902086 -0.757542 0.652786 -0.000000 153 162 163 255
-0.597173 0.553144 -0.784953 -0.757542 0.652786 -0.000000 48 51 51 255
-0.699322 0.434602 -0.784953 -0.757542 0.652786 -0.000000 48 51 51 255
-0.597174 0.553144 3.902086 -0.615816 0.787890 -0.000000 153 162 163 255
-0.472704 0.650429 -0.784953 -0.615816 0.787890 -0.000000 48 51 51 255
-0.597173 0.553144 -0.784953 -0.615816 0.787890 -0.000000 48 51 51 255
-0.472705 0.650429 3.902086 -0.453659 0.891175 -0.000000 153 162 163 255
-0.330699 0.722718 -0.784953 -0.453659 0.891175 -0.000000 48 51 51 255
-0.472704 0.650429 -0.784953 -0.453659 0.891175 -0.000000 48 51 51 255
-0.330699 0.722718 3.902086 -0.277549 0.960712 -0.000000 153 162 163 255
-0.176615 0.767232 -0.784953 -0.277549 0.960712 -0.000000 48 51 51 255
-0.330699 0.722718 -0.784953 -0.277549 0.960712 -0.000000 48 51 51 255
-0.176616 0.767233 3.902086 -0.093393 0.995629 -0.000000 153 162 163 255
-0.016372 0.782264 -0.784953 -0.093393 0.995629 -0.000000 48 51 51 255
-0.176615 0.767232 -0.784953 -0.093393 0.995629 -0.000000 48 51 51 255
-0.016373 0.782264 3.902086 0.093393 0.995629 -0.000000 153 162 163 255
0.143871 0.767232 -0.784953 0.093393 0.995629 -0.000000 48 51 51 255
-0.016372 0.782264 -0.784953 0.093393 0.995629 -0.000000 48 51 51 255
0.143870 0.767233 3.902086 0.277546 0.960712 -0.000000 153 162 163 255
0.297956 0.722718 -0.784953 0.277546 0.960712 -0.000000 48 51 51 255
0.143871 0.767232 -0.784953 0.277546 0.960712 -0.000000 48 51 51 255
0.297955 0.722718 3.902086 0.453659 0.891175 0.000000 153 162 163 255
0.439962 0.650429 -0.784953 0.453659 0.891175 0.000000 48 51 51 255
0.297956 0.722718 -0.784953 0.453659 0.891175 0.000000 48 51 51 255
0.439961 0.650429 3.902086 0.615816 0.787890 0.000000 153 162 163 255
0.564430 0.553144 -0.784953 0.615816 0.787890 0.000000 48 51 51 255
0.439962 0.650429 -0.784953 0.615816 0.787890 0.000000 48 51 51 255
0.564430 0.553144 3.902086 0.757546 0.652782 0.000000 153 162 163 255
0.666578 0.434602 -0.784953 0.757546 0.652782 0.000000 48 51 51 255
0.564430 0.553144 -0.784953 0.757546 0.652782 0.000000 48 51 51 255
0.666578 0.434602 3.902086 0.872047 0.489423 0.000000 153 162 163 255
0.742481 0.299359 -0.784953 0.872047 0.489423 0.000000 48 51 51 255
0.666578 0.434602 -0.784953 0.872047 0.489423 0.000000 48 51 51 255
0.742481 0.299360 3.902086 0.952833 0.303494 0.000000 153 162 163 255
0.789223 0.152612 -0.784953 0.952833 0.303494 0.000000 48 51 51 255
0.742481 0.299359 -0.784953 0.952833 0.303494 0.000000 48 51 51 255
0.789222 0.152612 3.902086 0.994695 0.102864 0.000000 153 162 163 255
0.805005 -0.000001 -0.784953 0.994695 0.102864 0.000000 48 51 51 255
0.789223 0.152612 -0.784953 0.994695 0.102864 0.000000 48 51 51 255
0.805004 -0.000001 3.902086 0.994695 -0.102865 0.000000 153 162 163 255
0.789223 -0.152613 -0.784953 0.994695 -0.102865 0.000000 48 51 51 255
0.805005 -0.000001 -0.784953 0.994695 -0.102865 0.000000 48 51 51 255
0.789222 -0.152613 3.902086 0.952833 -0.303494 0.000000 153 162 163 255
0.742481 -0.299361 -0.784953 0.952833 -0.303494 0.000000 81 86 87 255
0.789223 -0.152613 -0.784953 0.952833 -0.303494 0.000000 48 51 51 255
0.742481 -0.299360 3.902086 0.872043 -0.489429 0.000000 153 162 163 255
0.666577 -0.434604 -0.784953 0.872043 -0.489429 0.000000 98 104 105 255
0.742481 -0.299361 -0.784953 0.872043 -0.489429 0.000000 81 86 87 255
0.666576 -0.434603 3.902086 0.757546 -0.652782 0.000000 153 162 163 255
0.564429 -0.553145 -0.784953 0.757546 -0.652782 0.000000 153 162 163 255
0.666577 -0.434604 -0.784953 0.757546 -0.652782 0.000000 98 104 105 255
0.564428 -0.553145 3.902086 0.615811 -0.787894 0.000000 153 162 163 255
0.439960 -0.650429 -0.784953 0.615811 -0.787894 0.000000 153 162 163 255
0.564429 -0.553145 -0.784953 0.615811 -0.787894 0.000000 153 162 163 255
0.439960 -0.650429 3.902086 0.453659 -0.891175 0.000000 153 162 163 255
0.297955 -0.722718 -0.784953 0.453659 -0.891175 0.000000 153 162 163 255
0.439960 -0.650429 -0.784953 0.453659 -0.891175 0.000000 153 162 163 255
-0.597174 -0.553144 3.902086 0.000000 0.000000 1.000000 153 162 163 255
-0.472705 -0.650429 3.902086 0.000000 0.000000 1.000000 153 162 163 255
-0.597174 0.553144 3.902086 0.000000 0.000000 1.000000 153 162 163 255
0.297954 -0.722718 3.902086 0.277546 -0.960712 0.000000 153 162 163 255
0.143870 -0.767233 -0.784953 0.277546 -0.960712 0.000000 153 162 163 255
0.297955 -0.722718 -0.784953 0.277546 -0.960712 0.000000 153 162 163 255
0.143869 -0.767232 3.902086 0.093394 -0.995629 0.000000 153 162 163 255
-0.016372 -0.782264 -0.784953 0.093394 -0.995629 0.000000 153 162 163 255
0.143870 -0.767233 -0.784953 0.093394 -0.995629 0.000000 153 162 163 255
0.439960 -0.650429 -0.784953 0.000000 -0.000000 -1.000000 48 51 51 255
0.297955 -0.722718 -0.784953 0.000000 -0.000000 -1.000000 48 51 51 255
0.439962 0.650429 -0.784953 0.000000 -0.000000 -1.000000 48 51 51 255
-0.176616 -0.767232 3.902086 -0.093393 -0.995629 0.000000 153 162 163 255
-0.330701 -0.722718 3.902086 -0.277546 -0.960712 0.000000 153 162 163 255
-0.472705 -0.650429 3.902086 -0.453663 -0.891173 -0.000000 153 162 163 255
-0.597174 -0.553144 3.902086 -0.615816 -0.787890 -0.000000 153 162 163 255
-0.699323 -0.434602 3.902086 -0.757542 -0.652786 -0.000000 153 162 163 255
-0.775226 -0.299359 3.902086 -0.872047 -0.489423 -0.000000 153 162 163 255
-0.821968 -0.152612 3.902086 -0.952833 -0.303494 -0.000000 153 162 163 255
-0.837750 0.000000 3.902086 -0.994695 -0.102865 -0.000000 153 162 163 255
-0.821968 0.152612 3.902086 -0.994695 0.102865 -0.000000 153 162 163 255
-0.775226 0.299360 3.902086 -0.952833 0.303494 -0.000000 153 162 163 255
-0.699323 0.434602 3.902086 -0.872047 0.489423 -0.000000 153 162 163 255
-0.597174 0.553144 3.902086 -0.757542 0.652786 -0.000000 153 162 163 255
-0.472705 0.650429 3.902086 -0.615816 0.787890 -0.000000 153 162 163 255
-0.330699 0.722718 3.902086 -0.453659 0.891175 -0.000000 153 162 163 255
-0.176616 0.767233 3.902086 -0.277549 0.960712 -0.000000 153 162 163 255
-0.016373 0.782264 3.902086 -0.093393 0.995629 -0.000000 153 162 163 255
0.143870 0.767233 3.902086 0.093393 0.995629 -0.000000 153 162 163 255
0.297955 0.722718 3.902086 0.277546 0.960712 -0.000000 153 162 163 255
0.439961 0.650429 3.902086 0.453659 0.891175 0.000000 153 162 163 255
0.564430 0.553144 3.902086 0.615816 0.787890 0.000000 153 162 163 255
0.666578 0.434602 3.902086 0.757546 0.652782 0.000000 153 162 163 255
0.742481 0.299360 3.902086 0.872047 0.489423 0.000000 153 162 163 255
0.789222 0.152612 3.902086 0.952833 0.303494 0.000000 153 162 163 255
0.805004 -0.000001 3.902086 0.994695 0.102864 0.000000 153 162 163 255
0.789222 -0.152613 3.902086 0.994695 -0.102865 0.000000 153 162 163 255
0.742481 -0.299360 3.902086 0.952833 -0.303494 0.000000 153 162 163 255
0.666576 -0.434603 3.902086 0.872043 -0.489429 0.000000 153 162 163 255
0.564428 -0.553145 3.902086 0.757546 -0.652782 0.000000 153 162 163 255
0.439960 -0.650429 3.902086 0.615811 -0.787894 0.000000 153 162 163 255
0.297954 -0.722718 3.902086 0.453659 -0.891175 0.000000 153 162 163 255
-0.330701 -0.722718 3.902086 0.000000 0.000000 1.000000 153 162 163 255
-0.176616 -0.767232 3.902086 0.000000 0.000000 1.000000 153 162 163 255
-0.176616 0.767233 3.902086 0.000000 0.000000 1.000000 153 162 163 255
-0.016373 -0.782264 3.902086 0.000000 0.000000 1.000000 153 162 163 255
-0.016373 0.782264 3.902086 0.000000 0.000000 1.000000 153 162 163 255
0.143869 -0.767232 3.902086 0.000000 0.000000 1.000000 153 162 163 255
0.143870 0.767233 3.902086 0.000000 0.000000 1.000000 153 162 163 255
0.297954 -0.722718 3.902086 0.000000 0.000000 1.000000 153 162 163 255
0.297955 0.722718 3.902086 0.000000 0.000000 1.000000 153 162 163 255
0.439960 -0.650429 3.902086 0.000000 0.000000 1.000000 153 162 163 255
0.439960 -0.650429 3.902086 -0.000004 0.000000 1.000000 153 162 163 255
0.564428 -0.553145 3.902086 -0.000004 0.000000 1.000000 153 162 163 255
0.439961 0.650429 3.902086 -0.000004 0.000000 1.000000 153 162 163 255
0.439961 0.650429 3.902086 0.000000 0.000000 1.000000 153 162 163 255
0.564428 -0.553145 3.902086 -0.000001 0.000000 1.000000 153 162 163 255
0.666576 -0.434603 3.902086 -0.000001 0.000000 1.000000 153 162 163 255
0.564430 0.553144 3.902086 -0.000001 0.000000 1.000000 153 162 163 255
0.666576 -0.434603 3.902086 -0.000001 0.000001 1.000000 153 162 163 255
0.742481 -0.299360 3.902086 -0.000001 0.000001 1.000000 153 162 163 255
0.666578 0.434602 3.902086 -0.000001 0.000001 1.000000 153 162 163 255
0.564430 0.553144 3.902086 0.000001 0.000001 1.000000 153 162 163 255
0.666576 -0.434603 3.902086 0.000001 0.000001 1.000000 153 162 163 255
0.666578 0.434602 3.902086 0.000001 0.000001 1.000000 153 162 163 255
0.742481 -0.299360 3.902086 -0.000003 0.000001 1.000000 153 162 163 255
0.789222 -0.152613 3.902086 -0.000003 0.000001 1.000000 153 162 163 255
0.742481 0.299360 3.902086 -0.000003 0.000001 1.000000 153 162 163 255
0.789222 -0.152613 3.902086 -0.000015 0.000002 1.000000 153 162 163 255
0.805004 -0.000001 3.902086 -0.000015 0.000002 1.000000 153 162 163 255
0.789222 0.152612 3.902086 -0.000015 0.000002 1.000000 153 162 163 255
0.742481 0.299360 3.902086 0.000005 0.000002 1.000000 153 162 163 255
0.789222 -0.152613 3.902086 0.000005 0.000002 1.000000 153 162 163 255
0.789222 0.152612 3.902086 0.000005 0.000002 1.000000 153 162 163 255
0.742481 0.299360 3.902086 0.000001 0.000001 1.000000 153 162 163 255
0.742481 -0.299360 3.902086 0.000001 0.000001 1.000000 153 162 163 255
0.564430 0.553144 3.902086 0.000000 0.000000 1.000000 153 162 163 255
0.564428 -0.553145 3.902086 0.000000 0.000000 1.000000 153 162 163 255
-0.330699 0.722718 3.902086 0.000000 0.000000 1.000000 153 162 163 255
-0.472705 0.650429 3.902086 0.000000 -0.000000 1.000000 153 162 163 255
-0.699323 0.434602 3.902086 0.000000 -0.000000 1.000000 153 162 163 255
-0.775226 0.299360 3.902086 0.000000 -0.000000 1.000000 153 162 163 255
-0.699323 -0.434602 3.902086 0.000000 -0.000000 1.000000 153 162 163 255
-0.821968 0.152612 3.902086 0.000000 -0.000000 1.000000 153 162 163 255
-0.775226 -0.299359 3.902086 0.000000 -0.000000 1.000000 153 162 163 255
-0.837750 0.000000 3.902086 0.000000 -0.000000 1.000000 153 162 163 255
-0.821968 -0.152612 3.902086 0.000000 -0.000000 1.000000 153 162 163 255
0.143869 -0.767232 3.902086 0.277546 -0.960712 0.000000 153 162 163 255
-0.016373 -0.782264 3.902086 0.093394 -0.995629 0.000000 153 162 163 255
0.143870 -0.767233 -0.784953 0.000000 0.000000 -1.000000 48 51 51 255
-0.016372 -0.782264 -0.784953 0.000000 0.000000 -1.000000 48 51 51 255
-0.016372 0.782264 -0.784953 0.000000 0.000000 -1.000000 48 51 51 255
-0.176615 -0.767233 -0.784953 0.000000 0.000000 -1.000000 48 51 51 255
-0.176615 0.767232 -0.784953 0.000000 0.000000 -1.000000 48 51 51 255
-0.330700 -0.722718 -0.784953 0.000000 -0.000000 -1.000000 48 51 51 255
-0.472704 -0.650429 -0.784953 0.000000 -0.000000 -1.000000 48 51 51 255
-0.330699 0.722718 -0.784953 0.000000 -0.000000 -1.000000 48 51 51 255
-0.597173 -0.553144 -0.784953 -0.000000 -0.000000 -1.000000 48 51 51 255
-0.597173 0.553144 -0.784953 -0.000000 -0.000000 -1.000000 48 51 51 255
-0.699322 -0.434602 -0.784953 -0.000000 -0.000000 -1.000000 48 51 51 255
-0.699322 0.434602 -0.784953 -0.000000 -0.000000 -1.000000 48 51 51 255
-0.775225 -0.299360 -0.784953 -0.000000 -0.000000 -1.000000 48 51 51 255
-0.775225 -0.299360 -0.784953 -0.000001 -0.000000 -1.000000 48 51 51 255
-0.821967 -0.152612 -0.784953 -0.000001 -0.000000 -1.000000 48 51 51 255
-0.775225 0.299359 -0.784953 -0.000001 -0.000000 -1.000000 48 51 51 255
-0.699322 0.434602 -0.784953 0.000001 -0.000000 -1.000000 48 51 51 255
-0.775225 -0.299360 -0.784953 0.000001 -0.000000 -1.000000 48 51 51 255
-0.775225 0.299359 -0.784953 0.000001 -0.000000 -1.000000 48 51 51 255
-0.821967 -0.152612 -0.784953 0.000008 -0.000001 -1.000000 48 51 51 255
-0.837749 -0.000000 -0.784953 0.000008 -0.000001 -1.000000 48 51 51 255
-0.821967 0.152612 -0.784953 0.000008 -0.000001 -1.000000 48 51 51 255
-0.821967 0.152612 -0.784953 0.000002 -0.000001 -1.000000 48 51 51 255
-0.775225 0.299359 -0.784953 0.000002 -0.000001 -1.000000 48 51 51 255
-0.821967 -0.152612 -0.784953 0.000002 -0.000001 -1.000000 48 51 51 255
-0.597173 0.553144 -0.784953 0.000002 0.000000 -1.000000 48 51 51 255
-0.472704 0.650429 -0.784953 0.000002 0.000000 -1.000000 48 51 51 255
-0.472704 -0.650429 -0.784953 0.000002 0.000000 -1.000000 48 51 51 255
-0.472704 0.650429 -0.784953 -0.000000 0.000000 -1.000000 48 51 51 255
0.143871 0.767232 -0.784953 0.000000 0.000000 -1.000000 48 51 51 255
0.297956 0.722718 -0.784953 0.000000 0.000000 -1.000000 48 51 51 255
0.564430 0.553144 -0.784953 -0.000000 -0.000000 -1.000000 48 51 51 255
0.564429 -0.553145 -0.784953 -0.000000 -0.000000 -1.000000 48 51 51 255
0.666578 0.434602 -0.784953 -0.000000 -0.000000 -1.000000 48 51 51 255
0.666577 -0.434604 -0.784953 -0.000000 -0.000000 -1.000000 48 51 51 255
0.742481 0.299359 -0.784953 -0.000000 -0.000000 -1.000000 48 51 51 255
0.742481 0.299359 -0.784953 -0.000001 -0.000000 -1.000000 48 51 51 255
0.789223 0.152612 -0.784953 -0.000001 -0.000000 -1.000000 48 51 51 255
0.742481 -0.299361 -0.784953 -0.000001 -0.000000 -1.000000 48 51 51 255
0.666577 -0.434604 -0.784953 0.000001 -0.000000 -1.000000 48 51 51 255
0.742481 0.299359 -0.784953 0.000001 -0.000000 -1.000000 48 51 51 255
0.742481 -0.299361 -0.784953 0.000001 -0.000000 -1.000000 48 51 51 255
0.789223 0.152612 -0.784953 0.000008 -0.000001 -1.000000 48 51 51 255
0.805005 -0.000001 -0.784953 0.000008 -0.000001 -1.000000 48 51 51 255
0.789223 -0.152613 -0.784953 0.000008 -0.000001 -1.000000 48 51 51 255
0.789223 -0.152613 -0.784953 0.000002 -0.000001 -1.000000 48 51 51 255
0.742481 -0.299361 -0.784953 0.000002 -0.000001 -1.000000 48 51 51 255
0.789223 0.152612 -0.784953 0.000002 -0.000001 -1.000000 48 51 51 255
0.564429 -0.553145 -0.784953 0.000002 -0.000000 -1.000000 48 51 51 255
0.439960 -0.650429 -0.784953 0.000002 -0.000000 -1.000000 48 51 51 255
0.439962 0.650429 -0.784953 0.000002 -0.000000 -1.000000 48 51 51 255
3 0 1 2
3 3 4 5
3 6 7 8
3 9 10 11
3 12 13 14
3 15 16 17
3 18 19 20
3 21 22 23
3 24 25 26
3 27 28 29
3 30 31 32
3 33 34 35
3 36 37 38
3 39 40 41
3 42 43 44
3 45 46 47
3 48 49 50
3 51 52 53
3 54 55 56
3 57 58 59
3 60 61 62
3 63 64 65
3 66 67 68
3 69 70 71
3 72 73 74
3 75 76 77
3 78 79 80
3 81 82 83
3 84 85 86
3 87 88 89
3 90 91 92
3 93 94 95
3 96 97 98
3 99 100 101
3 0 102 1
3 3 103 4
3 6 104 7
3 9 105 10
3 12 106 13
3 15 107 16
3 18 108 19
3 21 109 22
3 24 110 25
3 27 111 28
3 30 112 31
3 33 113 34
3 36 114 37
3 39 115 40
3 42 116 43
3 45 117 46
3 48 118 49
3 51 119 52
3 54 120 55
3 57 121 58
3 60 122 61
3 63 123 64
3 66 124 67
3 69 125 70
3 72 126 73
3 75 127 76
3 78 128 79
3 81 129 82
3 84 130 85
3 87 131 88
3 132 133 134
3 133 135 136
3 135 137 138
3 137 139 140
3 139 141 140
3 142 143 144
3 140 141 145
3 146 147 148
3 149 150 151
3 152 153 154
3 155 156 157
3 158 159 160
3 161 162 163
3 164 154 165
3 166 145 167
3 140 138 137
3 138 136 135
3 136 134 133
3 134 168 132
3 168 169 132
3 169 92 91
3 132 169 91
3 92 170 90
3 170 171 172
3 90 170 172
3 171 173 174
3 173 175 176
3 174 173 176
3 174 172 171
3 93 177 94
3 96 178 97
3 179 180 181
3 180 182 183
3 182 184 183
3 184 185 186
3 183 184 186
3 185 187 188
3 187 189 190
3 189 191 190
3 192 193 194
3 195 196 197
3 198 199 200
3 201 202 203
3 190 188 187
3 204 205 206
3 207 186 185
3 183 181 180
3 181 208 179
3 208 209 179
3 209 101 100
3 179 209 100
3 101 210 211
3 210 212 213
3 212 214 213
3 215 216 217
3 218 219 220
3 221 222 223
3 224 225 226
3 213 211 210
3 227 228 229
